<?xml version="1.0" encoding="UTF-8" standalone="no"?><!DOCTYPE svg PUBLIC "-//W3C//DTD SVG 1.1//EN" "http://www.w3.org/Graphics/SVG/1.1/DTD/svg11.dtd"><svg width="100%" height="100%" viewBox="0 0 705 628" version="1.1" xmlns="http://www.w3.org/2000/svg" xmlns:xlink="http://www.w3.org/1999/xlink" xml:space="preserve" xmlns:serif="http://www.serif.com/" style="fill-rule:evenodd;clip-rule:evenodd;stroke-linejoin:round;stroke-miterlimit:2;"><g><g><path d="M600.76,392.186l-0,122.078c-0,62.273 -50.558,112.831 -112.831,112.831l-375.098,0c-62.273,0 -112.831,-50.558 -112.831,-112.831l0,-366.924c0,-54.444 38.644,-99.934 89.976,-110.511l1.602,-5.155l4.079,-7.513l5.382,-6.523l6.523,-5.382l7.513,-4.079l8.327,-2.587l8.886,-0.899l8.885,0.899l8.327,2.587l7.514,4.079l6.522,5.382l5.382,6.523l4.08,7.513l0.88,2.834l83.857,0l0.88,-2.834l4.08,-7.513l5.382,-6.523l6.522,-5.382l7.514,-4.079l8.327,-2.587l8.885,-0.899l8.886,0.899l8.326,2.587l7.514,4.079l6.523,5.382l5.381,6.523l4.08,7.513l0.881,2.834l83.821,0l2.338,-7.524l4.079,-7.514l5.382,-6.522l6.523,-5.382l7.513,-4.08l8.327,-2.587l8.886,-0.899l8.885,0.899l8.327,2.587l7.514,4.08l6.522,5.382l5.382,6.522l4.08,7.514l2.587,8.327l0.163,1.614c48.437,10.193 85.475,51.496 89.205,102l6.327,0.4c0.191,0.012 0.381,0.035 0.57,0.068l12.634,2.211c0.378,0.066 0.746,0.173 1.1,0.32l11.846,4.919c0.177,0.074 0.349,0.157 0.517,0.249l7.366,4.061c0.181,0.1 0.356,0.21 0.524,0.331l11.26,8.087c0.168,0.12 0.328,0.251 0.481,0.391l24.946,22.868c0.153,0.14 0.297,0.289 0.432,0.446l9.033,10.515c0.134,0.157 0.26,0.322 0.375,0.493l4.684,6.987c0.107,0.159 0.204,0.323 0.293,0.493l5.928,11.375c0.177,0.339 0.316,0.697 0.415,1.067l3.299,12.395c0.049,0.185 0.088,0.373 0.116,0.562l1.278,8.458c0.025,0.163 0.042,0.327 0.051,0.491l0.609,11.029c0.018,0.329 0.005,0.659 -0.039,0.986l-1.482,10.946c-0.022,0.163 -0.052,0.325 -0.089,0.486l-2.079,8.907c-0.034,0.146 -0.075,0.29 -0.121,0.432l-3.117,9.55c-0.093,0.284 -0.211,0.561 -0.351,0.825l-4.71,8.873c-0.07,0.132 -0.146,0.262 -0.227,0.387l-5.391,8.335c-0.079,0.122 -0.164,0.241 -0.253,0.356l-5.979,7.735c-0.089,0.115 -0.183,0.227 -0.281,0.334l-79.655,86.893Zm-39.587,-245.592c-0.317,-31.68 -20.788,-58.572 -49.192,-68.455l-0,30.089l-0.899,8.885l-2.587,8.327l-4.08,7.514l-5.382,6.522l-6.522,5.382l-7.514,4.08l-8.327,2.587l-8.885,0.899l-8.886,-0.899l-8.327,-2.587l-7.513,-4.08l-6.523,-5.382l-5.382,-6.522l-4.079,-7.514l-2.587,-8.327l-0.899,-8.885l-0,-34.136l-80.068,-0l0,38.827l-0.899,8.885l-2.587,8.327l-4.08,7.514l-5.381,6.522l-6.523,5.382l-7.514,4.08l-8.326,2.587l-8.886,0.899l-8.885,-0.899l-8.327,-2.587l-7.514,-4.08l-6.522,-5.382l-5.382,-6.522l-4.08,-7.514l-2.587,-8.327l-0.899,-8.885l0,-38.827l-78.646,-0l0,38.827l-0.898,8.885l-2.587,8.327l-4.08,7.514l-5.382,6.522l-6.522,5.382l-7.514,4.08l-8.327,2.587l-8.885,0.899l-8.886,-0.899l-8.327,-2.587l-7.513,-4.08l-6.523,-5.382l-5.382,-6.522l-4.079,-7.514l-2.588,-8.327l-0.898,-8.885l-0,-34.537c-28.269,10.155 -48.509,37.211 -48.509,68.958l0,366.924c0,40.427 32.822,73.248 73.248,73.248l375.098,-0c40.426,-0 73.248,-32.821 73.248,-73.248l-0,-94.598c-0.067,0.003 -0.133,0.006 -0.2,0.009l0,-37.351l93.563,-101.667c1.024,-1.117 1.953,-2.319 2.776,-3.591l5.391,-8.335c1.695,-2.62 2.924,-5.514 3.634,-8.553l2.079,-8.907c0.781,-3.345 0.918,-6.807 0.405,-10.203l-1.278,-8.458c-0.597,-3.95 -2.06,-7.718 -4.284,-11.036l-4.684,-6.987c-1.199,-1.788 -2.607,-3.427 -4.194,-4.882l-24.947,-22.868c-1.587,-1.455 -3.342,-2.716 -5.227,-3.755l-7.367,-4.061c-3.498,-1.928 -7.379,-3.058 -11.366,-3.31l-8.537,-0.54c-3.427,-0.216 -6.865,0.221 -10.129,1.289l-8.693,2.844c-2.967,0.971 -5.743,2.447 -8.206,4.363l-7.835,6.093c-0.053,0.041 -0.431,0.328 -0.901,0.684c-0.065,0.049 -0.132,0.1 -0.2,0.151l0,-43.918l0.196,-0.083Zm-283.127,-33.675c-0,11.744 9.535,21.279 21.279,21.279c11.745,0 21.28,-9.535 21.28,-21.279l-0,-64.032c-0,-5.541 -2.123,-10.591 -5.599,-14.379c-3.891,-4.24 -9.477,-6.901 -15.681,-6.901c-6.203,0 -11.79,2.661 -15.681,6.901c-3.476,3.788 -5.598,8.838 -5.598,14.379l-0,64.032Zm168.459,-4.691c0,11.744 9.535,21.279 21.28,21.279c11.744,0 21.279,-9.535 21.279,-21.279l-0,-64.032c-0,-3.488 -0.841,-6.781 -2.331,-9.688c-3.528,-6.879 -10.692,-11.591 -18.948,-11.591c-8.257,-0 -15.421,4.712 -18.948,11.591c-1.491,2.907 -2.332,6.2 -2.332,9.688l0,64.032Zm-335.497,4.691c0,11.744 9.535,21.279 21.28,21.279c11.744,0 21.279,-9.535 21.279,-21.279l-0,-64.032c-0,-5.541 -2.123,-10.591 -5.598,-14.379c-3.891,-4.24 -9.478,-6.901 -15.681,-6.901c-6.204,0 -11.791,2.661 -15.682,6.901c-3.475,3.788 -5.598,8.838 -5.598,14.379l0,64.032Z" style="fill:#37bfe4;"/><path d="M441.76,241.648l-325.566,-0c-12.355,-0 -22.385,-10.03 -22.385,-22.385c0,-12.354 10.03,-22.384 22.385,-22.384l325.566,-0c12.354,-0 22.384,10.03 22.384,22.384c0,12.355 -10.03,22.385 -22.384,22.385Z" style="fill:#37bfe4;"/><path d="M379.973,323.275l-263.779,-0c-12.355,-0 -22.385,-10.03 -22.385,-22.385c0,-12.354 10.03,-22.384 22.385,-22.384l263.779,-0c12.355,-0 22.385,10.03 22.385,22.384c-0,12.355 -10.03,22.385 -22.385,22.385Z" style="fill:#37bfe4;"/><path d="M307.349,409.728l-191.155,-0c-12.355,-0 -22.385,-10.031 -22.385,-22.385c0,-12.354 10.03,-22.384 22.385,-22.384l191.155,-0c12.355,-0 22.385,10.03 22.385,22.384c-0,12.354 -10.03,22.385 -22.385,22.385Z" style="fill:#37bfe4;"/><path d="M351.313,521.6c-0.033,-0.005 -0.067,-0.009 -0.1,-0.014c-4.625,-0.638 -7.185,-5.125 -5.712,-10.013l19.286,-64.008c0.494,-1.64 1.379,-3.118 2.512,-4.333l3.246,-5.019l208.16,-227.074l7.835,-6.094l8.693,-2.844l8.537,0.539l7.367,4.061l24.947,22.868l4.684,6.987l1.278,8.458l-2.079,8.907l-5.392,8.335l-208.16,227.074l-4.444,3.457c-0.793,0.842 -1.72,1.572 -2.752,2.14l-0.639,0.497l-1.955,0.64l-60.648,24.799c-1.603,0.655 -3.204,0.846 -4.664,0.637Zm22.563,-46.264l-4.093,13.586l6.308,5.782l13.079,-5.348l-15.294,-14.02Zm176.343,-206.347l-166.337,181.451c-1.287,1.404 -1.38,3.416 -0.207,4.491l24.946,22.869c1.173,1.075 3.17,0.808 4.457,-0.596l166.337,-181.451l-29.196,-26.764Zm42.198,12.581l28.821,-31.441c1.287,-1.404 1.38,-3.416 0.207,-4.491l-24.946,-22.869c-1.173,-1.075 -3.17,-0.808 -4.457,0.596l-28.822,31.441l29.197,26.764Z" style="fill:#37bfe4;"/><path d="M112.012,524.196c0.518,-0.22 2.373,-1.062 3.853,-2.445c2.535,-2.369 5.253,-5.993 8.216,-11.287c14.619,-26.126 30.748,-41.268 33.776,-43.99c1.237,-1.324 3.98,-3.981 7.576,-5.803c1.13,-0.573 2.337,-1.068 3.598,-1.446l4.438,-0.794l3.352,0.108l3.476,0.785c5.931,1.963 14.131,8.344 18.967,27.975c2.438,9.899 4.516,18.633 7.095,25.274c0.81,2.088 1.651,3.927 2.617,5.446c0.543,0.854 0.914,1.695 1.672,1.973c0.889,0.327 1.844,-0.309 3.149,-0.892c3.689,-1.649 7.994,-4.805 13.266,-9.497c11.446,-10.187 17.618,-16.057 21.361,-18.767c1.722,-1.247 3.193,-2.06 4.436,-2.583l4.462,-1.108l2.786,0.088l2.761,0.717l2.727,1.442l2.635,2.341c1.703,1.899 3.495,5.979 8.178,11.195c6.184,6.89 11.499,13.072 18.896,14.137c4.514,0.65 9.556,-0.944 15.912,-4.748c4.933,-2.953 11.335,-1.345 14.287,3.588c2.953,4.932 1.346,11.335 -3.587,14.287c-11.679,6.991 -21.285,8.688 -29.581,7.494c-11.82,-1.702 -21.547,-9.831 -31.43,-20.841c-1.58,-1.76 -3.083,-3.702 -4.357,-5.466c-3.638,3.177 -9.158,8.021 -15.636,13.787c-9.028,8.035 -16.373,12.467 -22.231,14.346c-5.89,1.889 -10.889,1.625 -15.216,0.037c-5.775,-2.121 -10.734,-6.965 -14.502,-14.748c-3.766,-7.778 -6.644,-19.181 -9.929,-32.519c-1.233,-5.008 -2.564,-8.656 -4.051,-11.222c-0.242,-0.419 -0.56,-0.86 -0.847,-1.229l-0.899,0.674c-0.378,0.46 -0.795,0.887 -1.246,1.276c0,0 -15.596,13.597 -29.731,38.857c-10.026,17.917 -19.762,22.733 -26.089,24.013c-3.803,0.769 -7.002,0.421 -9.473,-0.225l-3.906,-1.476l-0.572,-0.365c2.442,1.163 4.204,0.82 4.204,0.82l-6.687,-2.43c-4.408,-3.691 -4.99,-10.266 -1.299,-14.674c3.395,-4.054 9.229,-4.872 13.573,-2.105Zm-9.791,18.389c-0.724,-0.344 -1.507,-0.821 -2.322,-1.478l2.322,1.478Z" style="fill:#37bfe4;"/></g></g></svg>