<?xml version="1.0" encoding="UTF-8" standalone="no"?><!DOCTYPE svg PUBLIC "-//W3C//DTD SVG 1.1//EN" "http://www.w3.org/Graphics/SVG/1.1/DTD/svg11.dtd"><svg width="100%" height="100%" viewBox="0 0 1026 247" version="1.1" xmlns="http://www.w3.org/2000/svg" xmlns:xlink="http://www.w3.org/1999/xlink" xml:space="preserve" xmlns:serif="http://www.serif.com/" style="fill-rule:evenodd;clip-rule:evenodd;stroke-linejoin:round;stroke-miterlimit:2;"><g><g><g transform="matrix(238.378,0,0,238.378,-3.37305,194.641)"><path d="M0.271,0.019c-0.041,0 -0.075,-0.005 -0.104,-0.015c-0.028,-0.01 -0.051,-0.022 -0.069,-0.036c-0.018,-0.013 -0.032,-0.026 -0.041,-0.037c-0.009,-0.011 -0.015,-0.018 -0.017,-0.021c-0.013,-0.017 -0.022,-0.032 -0.025,-0.045c-0.003,-0.013 -0.001,-0.027 0.007,-0.04c0.007,-0.013 0.018,-0.028 0.035,-0.044c0.015,-0.015 0.03,-0.023 0.045,-0.024c0.015,-0.002 0.029,0.001 0.043,0.009c0.015,0.008 0.029,0.02 0.042,0.035c0.016,0.018 0.03,0.03 0.041,0.037c0.011,0.006 0.024,0.009 0.039,0.009c0.018,0 0.033,-0.002 0.044,-0.007c0.011,-0.004 0.02,-0.011 0.025,-0.019c0.005,-0.01 0.008,-0.021 0.008,-0.035c0,-0.011 -0.006,-0.02 -0.017,-0.026c-0.011,-0.007 -0.026,-0.012 -0.044,-0.017c-0.019,-0.005 -0.039,-0.01 -0.062,-0.016c-0.023,-0.005 -0.045,-0.013 -0.067,-0.022c-0.013,-0.005 -0.026,-0.012 -0.039,-0.02c-0.013,-0.008 -0.025,-0.017 -0.036,-0.027c-0.011,-0.011 -0.02,-0.023 -0.028,-0.037c-0.008,-0.015 -0.014,-0.031 -0.019,-0.049c-0.004,-0.018 -0.006,-0.038 -0.006,-0.061c-0,-0.041 0.01,-0.077 0.03,-0.109c0.021,-0.032 0.049,-0.057 0.084,-0.076c0.036,-0.019 0.077,-0.028 0.122,-0.028c0.033,0 0.061,0.003 0.084,0.008c0.023,0.005 0.042,0.012 0.057,0.019c0.016,0.007 0.027,0.014 0.035,0.021c0.008,0.006 0.013,0.01 0.015,0.012c0.022,0.02 0.034,0.037 0.036,0.051c0.002,0.015 -0.006,0.035 -0.024,0.062c-0.02,0.029 -0.04,0.045 -0.059,0.048c-0.019,0.004 -0.042,-0.002 -0.067,-0.018c-0.005,-0.004 -0.011,-0.009 -0.016,-0.014c-0.005,-0.005 -0.013,-0.009 -0.022,-0.013c-0.009,-0.003 -0.022,-0.005 -0.04,-0.005c-0.007,-0 -0.013,0.001 -0.02,0.003c-0.007,0.003 -0.012,0.006 -0.017,0.009c-0.005,0.004 -0.009,0.009 -0.012,0.014c-0.003,0.005 -0.004,0.011 -0.004,0.017c-0,0.014 0.005,0.025 0.016,0.032c0.011,0.008 0.025,0.014 0.042,0.018c0.018,0.004 0.038,0.008 0.059,0.012c0.021,0.004 0.043,0.009 0.065,0.016c0.018,0.006 0.035,0.014 0.052,0.023c0.017,0.009 0.031,0.021 0.044,0.036c0.013,0.015 0.023,0.033 0.03,0.054c0.008,0.022 0.012,0.049 0.012,0.08c0,0.043 -0.008,0.08 -0.025,0.11c-0.017,0.031 -0.038,0.055 -0.065,0.073c-0.026,0.019 -0.054,0.032 -0.084,0.04c-0.029,0.009 -0.057,0.013 -0.083,0.013Z" style="fill-rule:nonzero;"/></g><g transform="matrix(238.378,0,0,238.378,125.828,194.641)"><path d="M0.376,0.019c-0.026,0 -0.055,-0.004 -0.087,-0.012c-0.032,-0.009 -0.064,-0.022 -0.096,-0.04c-0.033,-0.018 -0.062,-0.041 -0.089,-0.07c-0.027,-0.029 -0.049,-0.063 -0.065,-0.103c-0.017,-0.04 -0.025,-0.086 -0.025,-0.139c0,-0.051 0.008,-0.095 0.025,-0.134c0.016,-0.039 0.037,-0.072 0.064,-0.1c0.027,-0.028 0.056,-0.051 0.089,-0.068c0.032,-0.017 0.064,-0.03 0.097,-0.038c0.033,-0.009 0.063,-0.013 0.09,-0.013c0.034,0 0.064,0.004 0.09,0.013c0.026,0.008 0.047,0.017 0.064,0.026c0.016,0.009 0.026,0.014 0.03,0.017c0.013,0.009 0.026,0.018 0.038,0.028c0.011,0.011 0.017,0.025 0.017,0.042c0,0.009 -0.002,0.018 -0.005,0.027c-0.004,0.009 -0.01,0.019 -0.017,0.029c-0.013,0.019 -0.026,0.032 -0.037,0.041c-0.012,0.009 -0.024,0.013 -0.035,0.013c-0.009,-0 -0.017,-0.002 -0.025,-0.006c-0.008,-0.004 -0.018,-0.01 -0.029,-0.017c-0.005,-0.003 -0.011,-0.007 -0.018,-0.012c-0.007,-0.004 -0.017,-0.008 -0.03,-0.012c-0.013,-0.003 -0.029,-0.005 -0.05,-0.005c-0.017,-0 -0.036,0.003 -0.056,0.009c-0.021,0.007 -0.04,0.017 -0.058,0.03c-0.018,0.014 -0.033,0.032 -0.044,0.054c-0.011,0.023 -0.017,0.05 -0.017,0.081c0,0.032 0.006,0.059 0.018,0.081c0.011,0.022 0.026,0.04 0.044,0.053c0.018,0.014 0.037,0.024 0.058,0.03c0.02,0.007 0.038,0.01 0.055,0.01c0.017,-0 0.032,-0.002 0.044,-0.005c0.012,-0.003 0.023,-0.007 0.033,-0.012c0.009,-0.005 0.018,-0.011 0.026,-0.016c0.007,-0.005 0.015,-0.01 0.024,-0.014c0.009,-0.004 0.017,-0.006 0.026,-0.006c0.011,-0 0.023,0.005 0.034,0.014c0.011,0.009 0.023,0.024 0.036,0.043c0.007,0.011 0.013,0.022 0.017,0.031c0.003,0.01 0.005,0.019 0.005,0.027c0,0.017 -0.006,0.03 -0.017,0.04c-0.012,0.01 -0.025,0.019 -0.038,0.027c-0.005,0.003 -0.015,0.009 -0.03,0.018c-0.015,0.009 -0.036,0.018 -0.062,0.026c-0.026,0.008 -0.057,0.012 -0.094,0.012Z" style="fill-rule:nonzero;"/></g><g transform="matrix(238.378,0,0,238.378,276.245,194.641)"><path d="M0.126,0.008c-0.03,0 -0.051,-0.005 -0.064,-0.014c-0.013,-0.008 -0.02,-0.02 -0.023,-0.035c-0.003,-0.014 -0.004,-0.028 -0.004,-0.043l0,-0.516c0,-0.015 0.001,-0.029 0.004,-0.043c0.003,-0.014 0.01,-0.025 0.023,-0.034c0.013,-0.009 0.034,-0.014 0.065,-0.014l0.201,0c0.025,-0 0.053,0.005 0.082,0.016c0.029,0.01 0.057,0.026 0.083,0.047c0.026,0.021 0.047,0.048 0.064,0.08c0.017,0.032 0.025,0.07 0.025,0.114c-0,0.031 -0.005,0.059 -0.014,0.086c-0.009,0.027 -0.022,0.051 -0.04,0.073c-0.017,0.021 -0.038,0.04 -0.064,0.057c-0.025,0.016 -0.053,0.029 -0.085,0.038l-0.161,0l0,0.097c0,0.015 -0.001,0.029 -0.004,0.043c-0.003,0.014 -0.01,0.026 -0.023,0.035c-0.013,0.009 -0.034,0.013 -0.065,0.013Zm0.419,-0.024c-0.03,0.023 -0.054,0.032 -0.071,0.028c-0.017,-0.005 -0.036,-0.02 -0.056,-0.047l-0.184,-0.25l0.208,-0.026l0.124,0.167c0.013,0.019 0.022,0.036 0.026,0.049c0.003,0.013 0.001,0.026 -0.006,0.038c-0.007,0.012 -0.021,0.026 -0.041,0.041Zm-0.327,-0.346l0.11,0c0.006,0 0.013,-0.001 0.022,-0.003c0.008,-0.003 0.016,-0.007 0.023,-0.012c0.007,-0.006 0.014,-0.014 0.019,-0.023c0.005,-0.009 0.007,-0.021 0.007,-0.035c0,-0.014 -0.003,-0.026 -0.01,-0.037c-0.007,-0.011 -0.015,-0.02 -0.026,-0.026c-0.011,-0.007 -0.024,-0.01 -0.037,-0.01l-0.108,0l0,0.146Z" style="fill-rule:nonzero;"/></g><g transform="matrix(238.378,0,0,238.378,420.225,194.641)"></g><g transform="matrix(238.378,0,0,238.378,476.244,194.641)"></g><g transform="matrix(238.378,0,0,238.378,532.263,194.641)"></g><g transform="matrix(238.378,0,0,238.378,588.282,194.641)"><path d="M0.549,-0.692c0.013,0 0.025,0.001 0.036,0.003c0.011,0.002 0.021,0.008 0.028,0.019c0.008,0.011 0.012,0.029 0.012,0.055c-0,0.025 -0.004,0.043 -0.012,0.054c-0.007,0.011 -0.017,0.018 -0.029,0.02c-0.011,0.002 -0.023,0.003 -0.036,0.003l-0.138,-0l0,0.458c-0,0.015 -0.001,0.029 -0.004,0.042c-0.003,0.014 -0.01,0.025 -0.023,0.034c-0.012,0.009 -0.033,0.013 -0.064,0.013c-0.029,-0 -0.05,-0.005 -0.063,-0.014c-0.013,-0.009 -0.02,-0.02 -0.022,-0.034c-0.003,-0.013 -0.004,-0.027 -0.004,-0.042l0,-0.457l-0.139,-0c-0.012,-0 -0.024,-0.001 -0.035,-0.004c-0.012,-0.002 -0.022,-0.008 -0.029,-0.019c-0.008,-0.011 -0.012,-0.029 -0.012,-0.055c0,-0.025 0.004,-0.043 0.012,-0.054c0.007,-0.011 0.017,-0.017 0.029,-0.019c0.012,-0.002 0.024,-0.003 0.036,-0.003l0.457,0Z" style="fill-rule:nonzero;"/></g><g transform="matrix(238.378,0,0,238.378,726.541,194.641)"><path d="M0.376,0.019c-0.026,0 -0.055,-0.004 -0.087,-0.012c-0.032,-0.009 -0.064,-0.022 -0.096,-0.04c-0.033,-0.018 -0.062,-0.041 -0.089,-0.07c-0.027,-0.029 -0.049,-0.063 -0.065,-0.103c-0.017,-0.04 -0.025,-0.086 -0.025,-0.139c0,-0.051 0.008,-0.095 0.025,-0.134c0.016,-0.039 0.037,-0.072 0.064,-0.1c0.027,-0.028 0.056,-0.051 0.089,-0.068c0.032,-0.017 0.064,-0.03 0.097,-0.038c0.033,-0.009 0.063,-0.013 0.09,-0.013c0.034,0 0.064,0.004 0.09,0.013c0.026,0.008 0.047,0.017 0.064,0.026c0.016,0.009 0.026,0.014 0.03,0.017c0.013,0.009 0.026,0.018 0.038,0.028c0.011,0.011 0.017,0.025 0.017,0.042c0,0.009 -0.002,0.018 -0.005,0.027c-0.004,0.009 -0.01,0.019 -0.017,0.029c-0.013,0.019 -0.026,0.032 -0.037,0.041c-0.012,0.009 -0.024,0.013 -0.035,0.013c-0.009,-0 -0.017,-0.002 -0.025,-0.006c-0.008,-0.004 -0.018,-0.01 -0.029,-0.017c-0.005,-0.003 -0.011,-0.007 -0.018,-0.012c-0.007,-0.004 -0.017,-0.008 -0.03,-0.012c-0.013,-0.003 -0.029,-0.005 -0.05,-0.005c-0.017,-0 -0.036,0.003 -0.056,0.009c-0.021,0.007 -0.04,0.017 -0.058,0.03c-0.018,0.014 -0.033,0.032 -0.044,0.054c-0.011,0.023 -0.017,0.05 -0.017,0.081c0,0.032 0.006,0.059 0.018,0.081c0.011,0.022 0.026,0.04 0.044,0.053c0.018,0.014 0.037,0.024 0.058,0.03c0.02,0.007 0.038,0.01 0.055,0.01c0.017,-0 0.032,-0.002 0.044,-0.005c0.012,-0.003 0.023,-0.007 0.033,-0.012c0.009,-0.005 0.018,-0.011 0.026,-0.016c0.007,-0.005 0.015,-0.01 0.024,-0.014c0.009,-0.004 0.017,-0.006 0.026,-0.006c0.011,-0 0.023,0.005 0.034,0.014c0.011,0.009 0.023,0.024 0.036,0.043c0.007,0.011 0.013,0.022 0.017,0.031c0.003,0.01 0.005,0.019 0.005,0.027c0,0.017 -0.006,0.03 -0.017,0.04c-0.012,0.01 -0.025,0.019 -0.038,0.027c-0.005,0.003 -0.015,0.009 -0.03,0.018c-0.015,0.009 -0.036,0.018 -0.062,0.026c-0.026,0.008 -0.057,0.012 -0.094,0.012Z" style="fill-rule:nonzero;"/></g><g transform="matrix(238.378,0,0,238.378,876.958,194.641)"><path d="M0.53,0.008c-0.03,0 -0.051,-0.005 -0.064,-0.014c-0.013,-0.008 -0.02,-0.02 -0.023,-0.035c-0.003,-0.014 -0.004,-0.028 -0.004,-0.043l0,-0.516c0,-0.015 0.001,-0.029 0.004,-0.043c0.003,-0.014 0.01,-0.025 0.023,-0.034c0.013,-0.009 0.034,-0.014 0.065,-0.014c0.031,-0 0.052,0.005 0.065,0.014c0.012,0.009 0.019,0.02 0.022,0.034c0.003,0.014 0.004,0.029 0.004,0.044l-0,0.516c-0,0.015 -0.001,0.029 -0.004,0.043c-0.003,0.014 -0.01,0.025 -0.023,0.034c-0.013,0.009 -0.034,0.014 -0.065,0.014Zm-0.411,-0c-0.03,-0 -0.051,-0.005 -0.064,-0.014c-0.013,-0.009 -0.02,-0.02 -0.023,-0.035c-0.003,-0.014 -0.004,-0.028 -0.004,-0.043l0,-0.516c0,-0.015 0.001,-0.029 0.004,-0.043c0.003,-0.014 0.01,-0.025 0.023,-0.034c0.013,-0.009 0.034,-0.014 0.065,-0.014c0.031,-0 0.052,0.005 0.065,0.014c0.012,0.009 0.019,0.02 0.022,0.034c0.003,0.014 0.004,0.029 0.004,0.044l0,0.516c0,0.015 -0.001,0.029 -0.004,0.043c-0.003,0.014 -0.01,0.025 -0.023,0.034c-0.013,0.009 -0.034,0.014 -0.065,0.014Zm0.076,-0.271l0,-0.156l0.26,-0l0,0.156l-0.26,-0Z" style="fill-rule:nonzero;"/></g><g transform="matrix(238.378,0,0,238.378,1031.9,194.641)"></g><path d="M521.783,179.599l-51.92,8.946l0.786,-0.149l-8.262,0.856l-8.438,-0.939l-7.83,-2.699l-6.696,-4.016l-5.493,-4.875l-4.499,-5.803l-3.268,-6.445c-0.841,-2.132 -1.511,-4.382 -1.995,-6.753l-0.783,-7.384l0.734,-7.584l2.304,-7.338l3.657,-6.684l74.718,-111.07l4.853,-5.898l6.16,-5.004l7.085,-3.691l7.431,-2.227l8.271,-0.842l8.413,0.986l7.733,2.717l6.583,3.973l5.562,4.96l4.511,5.889c2.437,3.911 4.22,8.324 5.228,13.284c0.039,0.19 0.074,0.381 0.107,0.573l30.193,175.234l-0.115,11.041l-1.741,5.656l-2.823,5.21l-3.907,4.733l-5.128,4.112l-5.965,2.99l-6.166,1.671l-15.951,2.749l-6.37,0.488l-6.621,-0.822l-6.209,-2.158l-5.266,-3.153l-4.404,-3.964l-3.533,-4.748l-3.803,-10.365l-7.143,-41.457Zm63.234,31.793l-30.192,-175.235c-1.029,-5.06 -3.515,-9.051 -7.46,-11.971c-3.944,-2.921 -8.182,-3.91 -12.712,-2.965c-4.834,0.996 -8.558,3.438 -11.173,7.326l-74.718,111.07c-2.864,4.258 -3.796,8.837 -2.795,13.738c1.001,4.901 3.474,8.812 7.418,11.733c3.945,2.921 8.258,3.896 12.94,2.926l64.716,-11.15c2.583,-0.445 4.905,0.096 6.967,1.622c2.062,1.527 3.326,3.642 3.791,6.344l9.037,52.451c0.466,2.702 1.73,4.816 3.792,6.343c2.062,1.527 4.384,2.068 6.966,1.623l15.952,-2.748c2.582,-0.445 4.589,-1.732 6.022,-3.861c1.432,-2.129 1.915,-4.544 1.449,-7.246Zm-51.844,-96.629c0.547,3.179 -0.698,5.03 -3.736,5.553l-17.319,2.984c-3.038,0.524 -4.831,-0.804 -5.379,-3.983c-0.219,-1.271 -0.017,-2.37 0.606,-3.296l14.57,-21.658c0.622,-0.926 1.541,-1.493 2.757,-1.703c3.038,-0.523 4.831,0.804 5.379,3.983l3.122,18.12Z" style="fill:#37bfe4;"/></g></g></svg>