<?xml version="1.0" encoding="UTF-8" standalone="no"?>
<!DOCTYPE svg PUBLIC "-//W3C//DTD SVG 1.1//EN" "http://www.w3.org/Graphics/SVG/1.1/DTD/svg11.dtd">
<svg width="100%" height="100%" viewBox="0 0 500 323" version="1.1" xmlns="http://www.w3.org/2000/svg" xmlns:xlink="http://www.w3.org/1999/xlink" xml:space="preserve" xmlns:serif="http://www.serif.com/" style="fill-rule:evenodd;clip-rule:evenodd;stroke-linejoin:round;stroke-miterlimit:2;">
    <g transform="matrix(1,0,0,1,-1961.69,-444.019)">
        <g transform="matrix(1,0,0,0.595067,1496.74,212.188)">
            <path d="M964.643,551.4L964.643,769.995C964.643,859.301 921.497,931.807 868.354,931.807L561.243,931.807C508.099,931.807 464.954,859.301 464.954,769.995L464.954,551.4C464.954,462.093 508.099,389.587 561.243,389.587L868.354,389.587C921.497,389.587 964.643,462.093 964.643,551.4ZM606.791,494.617L561.243,494.617C542.594,494.617 527.454,520.061 527.454,551.4L527.454,769.995C527.454,801.334 542.594,826.777 561.243,826.777L606.791,826.777L606.791,494.617ZM669.291,826.777L753.239,826.777L753.239,494.617L669.291,494.617L669.291,826.777ZM815.739,826.777L868.354,826.777C887.003,826.777 902.143,801.334 902.143,769.995L902.143,551.4C902.143,520.061 887.003,494.617 868.354,494.617L815.739,494.617L815.739,826.777Z"/>
        </g>
    </g>
</svg>
