<?xml version="1.0" encoding="UTF-8" standalone="no"?><!DOCTYPE svg PUBLIC "-//W3C//DTD SVG 1.1//EN" "http://www.w3.org/Graphics/SVG/1.1/DTD/svg11.dtd"><svg width="100%" height="100%" viewBox="0 0 1026 937" version="1.1" xmlns="http://www.w3.org/2000/svg" xmlns:xlink="http://www.w3.org/1999/xlink" xml:space="preserve" xmlns:serif="http://www.serif.com/" style="fill-rule:evenodd;clip-rule:evenodd;stroke-linejoin:round;stroke-miterlimit:2;"><g><g><g><path d="M794.104,392.186l-0,122.078c-0,62.273 -50.558,112.831 -112.832,112.831l-375.097,0c-62.273,0 -112.831,-50.558 -112.831,-112.831l-0,-366.924c-0,-54.444 38.644,-99.934 89.976,-110.511l1.601,-5.155l4.08,-7.513l5.382,-6.523l6.522,-5.382l7.514,-4.079l8.327,-2.587l8.885,-0.899l8.886,0.899l8.326,2.587l7.514,4.079l6.523,5.382l5.381,6.523l4.08,7.513l0.881,2.834l83.856,0l0.881,-2.834l4.08,-7.513l5.382,-6.523l6.522,-5.382l7.514,-4.079l8.327,-2.587l8.885,-0.899l8.885,0.899l8.327,2.587l7.514,4.079l6.522,5.382l5.382,6.523l4.08,7.513l0.88,2.834l83.822,0l2.337,-7.524l4.08,-7.514l5.382,-6.522l6.522,-5.382l7.514,-4.08l8.327,-2.587l8.885,-0.899l8.886,0.899l8.327,2.587l7.513,4.08l6.523,5.382l5.382,6.522l4.079,7.514l2.587,8.327l0.164,1.614c48.437,10.193 85.474,51.496 89.205,102l6.327,0.4c0.191,0.012 0.381,0.035 0.569,0.068l12.635,2.211c0.377,0.066 0.746,0.173 1.1,0.32l11.846,4.919c0.176,0.074 0.349,0.157 0.516,0.249l7.367,4.061c0.181,0.1 0.356,0.21 0.524,0.331l11.259,8.087c0.168,0.12 0.329,0.251 0.481,0.391l24.947,22.868c0.152,0.14 0.296,0.289 0.431,0.446l9.033,10.515c0.135,0.157 0.26,0.322 0.376,0.493l4.684,6.987c0.106,0.159 0.204,0.323 0.293,0.493l5.928,11.375c0.177,0.339 0.316,0.697 0.414,1.067l3.299,12.395c0.05,0.185 0.088,0.373 0.117,0.562l1.278,8.458c0.025,0.163 0.042,0.327 0.051,0.491l0.608,11.029c0.019,0.329 0.005,0.659 -0.039,0.986l-1.481,10.946c-0.022,0.163 -0.052,0.325 -0.089,0.486l-2.08,8.907c-0.034,0.146 -0.074,0.29 -0.12,0.432l-3.118,9.55c-0.093,0.284 -0.21,0.561 -0.35,0.825l-4.71,8.873c-0.07,0.132 -0.146,0.262 -0.227,0.387l-5.392,8.335c-0.079,0.122 -0.163,0.241 -0.252,0.356l-5.979,7.735c-0.089,0.115 -0.183,0.227 -0.282,0.334l-79.654,86.893Zm-39.587,-245.592c-0.317,-31.68 -20.788,-58.572 -49.193,-68.455l0,30.089l-0.899,8.885l-2.587,8.327l-4.079,7.514l-5.382,6.522l-6.523,5.382l-7.513,4.08l-8.327,2.587l-8.886,0.899l-8.885,-0.899l-8.327,-2.587l-7.514,-4.08l-6.522,-5.382l-5.382,-6.522l-4.08,-7.514l-2.587,-8.327l-0.899,-8.885l0,-34.136l-80.067,-0l-0,38.827l-0.899,8.885l-2.587,8.327l-4.08,7.514l-5.382,6.522l-6.522,5.382l-7.514,4.08l-8.327,2.587l-8.885,0.899l-8.885,-0.899l-8.327,-2.587l-7.514,-4.08l-6.522,-5.382l-5.382,-6.522l-4.08,-7.514l-2.587,-8.327l-0.899,-8.885l-0,-38.827l-78.646,-0l0,38.827l-0.899,8.885l-2.587,8.327l-4.08,7.514l-5.381,6.522l-6.523,5.382l-7.514,4.08l-8.326,2.587l-8.886,0.899l-8.885,-0.899l-8.327,-2.587l-7.514,-4.08l-6.522,-5.382l-5.382,-6.522l-4.08,-7.514l-2.587,-8.327l-0.899,-8.885l0,-34.537c-28.268,10.155 -48.508,37.211 -48.508,68.958l0,366.924c0,40.427 32.821,73.248 73.248,73.248l375.097,-0c40.427,-0 73.248,-32.821 73.248,-73.248l0,-94.598c-0.066,0.003 -0.133,0.006 -0.199,0.009l-0,-37.351l93.562,-101.667c1.025,-1.117 1.953,-2.319 2.776,-3.591l5.392,-8.335c1.695,-2.62 2.924,-5.514 3.634,-8.553l2.079,-8.907c0.781,-3.345 0.918,-6.807 0.405,-10.203l-1.278,-8.458c-0.597,-3.95 -2.06,-7.718 -4.284,-11.036l-4.684,-6.987c-1.199,-1.788 -2.607,-3.427 -4.194,-4.882l-24.947,-22.868c-1.587,-1.455 -3.342,-2.716 -5.227,-3.755l-7.367,-4.061c-3.498,-1.928 -7.38,-3.058 -11.366,-3.31l-8.537,-0.54c-3.428,-0.216 -6.865,0.221 -10.129,1.289l-8.694,2.844c-2.966,0.971 -5.742,2.447 -8.206,4.363l-7.835,6.093c-0.052,0.041 -0.43,0.328 -0.901,0.684c-0.065,0.049 -0.131,0.1 -0.199,0.151l-0,-43.918l0.196,-0.083Zm-283.127,-33.675c-0,11.744 9.535,21.279 21.279,21.279c11.744,0 21.279,-9.535 21.279,-21.279l0,-64.032c0,-5.541 -2.122,-10.591 -5.598,-14.379c-3.891,-4.24 -9.478,-6.901 -15.681,-6.901c-6.203,0 -11.79,2.661 -15.681,6.901c-3.476,3.788 -5.598,8.838 -5.598,14.379l-0,64.032Zm168.459,-4.691c0,11.744 9.535,21.279 21.279,21.279c11.745,0 21.28,-9.535 21.28,-21.279l-0,-64.032c-0,-3.488 -0.841,-6.781 -2.332,-9.688c-3.527,-6.879 -10.691,-11.591 -18.948,-11.591c-8.256,-0 -15.42,4.712 -18.948,11.591c-1.49,2.907 -2.331,6.2 -2.331,9.688l0,64.032Zm-335.497,4.691c-0,11.744 9.535,21.279 21.279,21.279c11.745,0 21.28,-9.535 21.28,-21.279l-0,-64.032c-0,-5.541 -2.123,-10.591 -5.599,-14.379c-3.891,-4.24 -9.477,-6.901 -15.681,-6.901c-6.203,0 -11.79,2.661 -15.681,6.901c-3.476,3.788 -5.598,8.838 -5.598,14.379l-0,64.032Z" style="fill:#00b0c6;"/><path d="M635.103,241.648l-325.566,-0c-12.354,-0 -22.384,-10.03 -22.384,-22.385c-0,-12.354 10.03,-22.384 22.384,-22.384l325.566,-0c12.355,-0 22.385,10.03 22.385,22.384c-0,12.355 -10.03,22.385 -22.385,22.385Z" style="fill:#00b0c6;"/><path d="M573.317,323.275l-263.78,-0c-12.354,-0 -22.384,-10.03 -22.384,-22.385c-0,-12.354 10.03,-22.384 22.384,-22.384l263.78,-0c12.354,-0 22.384,10.03 22.384,22.384c0,12.355 -10.03,22.385 -22.384,22.385Z" style="fill:#00b0c6;"/><path d="M500.693,409.728l-191.156,-0c-12.354,-0 -22.384,-10.031 -22.384,-22.385c-0,-12.354 10.03,-22.384 22.384,-22.384l191.156,-0c12.354,-0 22.384,10.03 22.384,22.384c0,12.354 -10.03,22.385 -22.384,22.385Z" style="fill:#00b0c6;"/><path d="M544.657,521.6c-0.034,-0.005 -0.067,-0.009 -0.101,-0.014c-4.625,-0.638 -7.184,-5.125 -5.711,-10.013l19.285,-64.008c0.494,-1.64 1.379,-3.118 2.512,-4.333l3.246,-5.019l208.161,-227.074l7.835,-6.094l8.693,-2.844l8.537,0.539l7.367,4.061l24.946,22.868l4.685,6.987l1.278,8.458l-2.08,8.907l-5.391,8.335l-208.16,227.074l-4.445,3.457c-0.792,0.842 -1.719,1.572 -2.752,2.14l-0.638,0.497l-1.955,0.64l-60.649,24.799c-1.602,0.655 -3.204,0.846 -4.663,0.637Zm22.563,-46.264l-4.094,13.586l6.309,5.782l13.079,-5.348l-15.294,-14.02Zm176.343,-206.347l-166.337,181.451c-1.288,1.404 -1.38,3.416 -0.208,4.491l24.947,22.869c1.173,1.075 3.17,0.808 4.457,-0.596l166.337,-181.451l-29.196,-26.764Zm42.197,12.581l28.822,-31.441c1.287,-1.404 1.38,-3.416 0.207,-4.491l-24.946,-22.869c-1.173,-1.075 -3.17,-0.808 -4.457,0.596l-28.822,31.441l29.196,26.764Z" style="fill:#00b0c6;"/><path d="M305.356,524.196c0.518,-0.22 2.372,-1.062 3.853,-2.445c2.535,-2.369 5.253,-5.993 8.215,-11.287c14.62,-26.126 30.748,-41.268 33.776,-43.99c1.237,-1.324 3.981,-3.981 7.577,-5.803c1.13,-0.573 2.336,-1.068 3.597,-1.446l4.439,-0.794l3.352,0.108l3.476,0.785c5.931,1.963 14.131,8.344 18.966,27.975c2.439,9.899 4.516,18.633 7.095,25.274c0.811,2.088 1.651,3.927 2.617,5.446c0.543,0.854 0.915,1.695 1.672,1.973c0.889,0.327 1.845,-0.309 3.15,-0.892c3.688,-1.649 7.993,-4.805 13.265,-9.497c11.447,-10.187 17.619,-16.057 21.362,-18.767c1.722,-1.247 3.193,-2.06 4.436,-2.583l4.462,-1.108l2.785,0.088l2.761,0.717l2.728,1.442l2.635,2.341c1.702,1.899 3.495,5.979 8.178,11.195c6.184,6.89 11.498,13.072 18.895,14.137c4.515,0.65 9.557,-0.944 15.912,-4.748c4.933,-2.953 11.335,-1.345 14.288,3.588c2.953,4.932 1.345,11.335 -3.588,14.287c-11.679,6.991 -21.284,8.688 -29.58,7.494c-11.821,-1.702 -21.547,-9.831 -31.43,-20.841c-1.581,-1.76 -3.083,-3.702 -4.358,-5.466c-3.638,3.177 -9.157,8.021 -15.635,13.787c-9.029,8.035 -16.373,12.467 -22.231,14.346c-5.89,1.889 -10.89,1.625 -15.216,0.037c-5.776,-2.121 -10.735,-6.965 -14.503,-14.748c-3.765,-7.778 -6.643,-19.181 -9.928,-32.519c-1.234,-5.008 -2.564,-8.656 -4.051,-11.222c-0.242,-0.419 -0.561,-0.86 -0.848,-1.229l-0.898,0.674c-0.378,0.46 -0.795,0.887 -1.246,1.276c0,0 -15.597,13.597 -29.731,38.857c-10.027,17.917 -19.762,22.733 -26.089,24.013c-3.803,0.769 -7.002,0.421 -9.473,-0.225l-3.906,-1.476l-0.572,-0.365c2.442,1.163 4.204,0.82 4.204,0.82l-6.688,-2.43c-4.407,-3.691 -4.989,-10.266 -1.298,-14.674c3.394,-4.054 9.229,-4.872 13.573,-2.105Zm-9.791,18.389c-0.724,-0.344 -1.508,-0.821 -2.323,-1.478l2.323,1.478Z" style="fill:#9489ba;"/></g></g><g><g transform="matrix(238.378,0,0,238.378,-3.37305,884.564)"><path d="M0.271,0.019c-0.041,0 -0.075,-0.005 -0.104,-0.015c-0.028,-0.01 -0.051,-0.022 -0.069,-0.036c-0.018,-0.013 -0.032,-0.026 -0.041,-0.037c-0.009,-0.011 -0.015,-0.018 -0.017,-0.021c-0.013,-0.017 -0.022,-0.032 -0.025,-0.045c-0.003,-0.013 -0.001,-0.027 0.007,-0.04c0.007,-0.013 0.018,-0.028 0.035,-0.044c0.015,-0.015 0.03,-0.023 0.045,-0.024c0.015,-0.002 0.029,0.001 0.043,0.009c0.015,0.008 0.029,0.02 0.042,0.035c0.016,0.018 0.03,0.03 0.041,0.037c0.011,0.006 0.024,0.009 0.039,0.009c0.018,0 0.033,-0.002 0.044,-0.007c0.011,-0.004 0.02,-0.011 0.025,-0.019c0.005,-0.01 0.008,-0.021 0.008,-0.035c0,-0.011 -0.006,-0.02 -0.017,-0.026c-0.011,-0.007 -0.026,-0.012 -0.044,-0.017c-0.019,-0.005 -0.039,-0.01 -0.062,-0.016c-0.023,-0.005 -0.045,-0.013 -0.067,-0.022c-0.013,-0.005 -0.026,-0.012 -0.039,-0.02c-0.013,-0.008 -0.025,-0.017 -0.036,-0.027c-0.011,-0.011 -0.02,-0.023 -0.028,-0.037c-0.008,-0.015 -0.014,-0.031 -0.019,-0.049c-0.004,-0.018 -0.006,-0.038 -0.006,-0.061c-0,-0.041 0.01,-0.077 0.03,-0.109c0.021,-0.032 0.049,-0.057 0.084,-0.076c0.036,-0.019 0.077,-0.028 0.122,-0.028c0.033,0 0.061,0.003 0.084,0.008c0.023,0.005 0.042,0.012 0.057,0.019c0.016,0.007 0.027,0.014 0.035,0.021c0.008,0.006 0.013,0.01 0.015,0.012c0.022,0.02 0.034,0.037 0.036,0.051c0.002,0.015 -0.006,0.035 -0.024,0.062c-0.02,0.029 -0.04,0.045 -0.059,0.048c-0.019,0.004 -0.042,-0.002 -0.067,-0.018c-0.005,-0.004 -0.011,-0.009 -0.016,-0.014c-0.005,-0.005 -0.013,-0.009 -0.022,-0.013c-0.009,-0.003 -0.022,-0.005 -0.04,-0.005c-0.007,-0 -0.013,0.001 -0.02,0.003c-0.007,0.003 -0.012,0.006 -0.017,0.009c-0.005,0.004 -0.009,0.009 -0.012,0.014c-0.003,0.005 -0.004,0.011 -0.004,0.017c-0,0.014 0.005,0.025 0.016,0.032c0.011,0.008 0.025,0.014 0.042,0.018c0.018,0.004 0.038,0.008 0.059,0.012c0.021,0.004 0.043,0.009 0.065,0.016c0.018,0.006 0.035,0.014 0.052,0.023c0.017,0.009 0.031,0.021 0.044,0.036c0.013,0.015 0.023,0.033 0.03,0.054c0.008,0.022 0.012,0.049 0.012,0.08c0,0.043 -0.008,0.08 -0.025,0.11c-0.017,0.031 -0.038,0.055 -0.065,0.073c-0.026,0.019 -0.054,0.032 -0.084,0.04c-0.029,0.009 -0.057,0.013 -0.083,0.013Z" style="fill:#00b0c6;fill-rule:nonzero;"/></g><g transform="matrix(238.378,0,0,238.378,125.828,884.564)"><path d="M0.376,0.019c-0.026,0 -0.055,-0.004 -0.087,-0.012c-0.032,-0.009 -0.064,-0.022 -0.096,-0.04c-0.033,-0.018 -0.062,-0.041 -0.089,-0.07c-0.027,-0.029 -0.049,-0.063 -0.065,-0.103c-0.017,-0.04 -0.025,-0.086 -0.025,-0.139c0,-0.051 0.008,-0.095 0.025,-0.134c0.016,-0.039 0.037,-0.072 0.064,-0.1c0.027,-0.028 0.056,-0.051 0.089,-0.068c0.032,-0.017 0.064,-0.03 0.097,-0.038c0.033,-0.009 0.063,-0.013 0.09,-0.013c0.034,0 0.064,0.004 0.09,0.013c0.026,0.008 0.047,0.017 0.064,0.026c0.016,0.009 0.026,0.014 0.03,0.017c0.013,0.009 0.026,0.018 0.038,0.028c0.011,0.011 0.017,0.025 0.017,0.042c0,0.009 -0.002,0.018 -0.005,0.027c-0.004,0.009 -0.01,0.019 -0.017,0.029c-0.013,0.019 -0.026,0.032 -0.037,0.041c-0.012,0.009 -0.024,0.013 -0.035,0.013c-0.009,-0 -0.017,-0.002 -0.025,-0.006c-0.008,-0.004 -0.018,-0.01 -0.029,-0.017c-0.005,-0.003 -0.011,-0.007 -0.018,-0.012c-0.007,-0.004 -0.017,-0.008 -0.03,-0.012c-0.013,-0.003 -0.029,-0.005 -0.05,-0.005c-0.017,-0 -0.036,0.003 -0.056,0.009c-0.021,0.007 -0.04,0.017 -0.058,0.03c-0.018,0.014 -0.033,0.032 -0.044,0.054c-0.011,0.023 -0.017,0.05 -0.017,0.081c0,0.032 0.006,0.059 0.018,0.081c0.011,0.022 0.026,0.04 0.044,0.053c0.018,0.014 0.037,0.024 0.058,0.03c0.02,0.007 0.038,0.01 0.055,0.01c0.017,-0 0.032,-0.002 0.044,-0.005c0.012,-0.003 0.023,-0.007 0.033,-0.012c0.009,-0.005 0.018,-0.011 0.026,-0.016c0.007,-0.005 0.015,-0.01 0.024,-0.014c0.009,-0.004 0.017,-0.006 0.026,-0.006c0.011,-0 0.023,0.005 0.034,0.014c0.011,0.009 0.023,0.024 0.036,0.043c0.007,0.011 0.013,0.022 0.017,0.031c0.003,0.01 0.005,0.019 0.005,0.027c0,0.017 -0.006,0.03 -0.017,0.04c-0.012,0.01 -0.025,0.019 -0.038,0.027c-0.005,0.003 -0.015,0.009 -0.03,0.018c-0.015,0.009 -0.036,0.018 -0.062,0.026c-0.026,0.008 -0.057,0.012 -0.094,0.012Z" style="fill:#00b0c6;fill-rule:nonzero;"/></g><g transform="matrix(238.378,0,0,238.378,276.245,884.564)"><path d="M0.126,0.008c-0.03,0 -0.051,-0.005 -0.064,-0.014c-0.013,-0.008 -0.02,-0.02 -0.023,-0.035c-0.003,-0.014 -0.004,-0.028 -0.004,-0.043l0,-0.516c0,-0.015 0.001,-0.029 0.004,-0.043c0.003,-0.014 0.01,-0.025 0.023,-0.034c0.013,-0.009 0.034,-0.014 0.065,-0.014l0.201,0c0.025,-0 0.053,0.005 0.082,0.016c0.029,0.01 0.057,0.026 0.083,0.047c0.026,0.021 0.047,0.048 0.064,0.08c0.017,0.032 0.025,0.07 0.025,0.114c-0,0.031 -0.005,0.059 -0.014,0.086c-0.009,0.027 -0.022,0.051 -0.04,0.073c-0.017,0.021 -0.038,0.04 -0.064,0.057c-0.025,0.016 -0.053,0.029 -0.085,0.038l-0.161,0l0,0.097c0,0.015 -0.001,0.029 -0.004,0.043c-0.003,0.014 -0.01,0.026 -0.023,0.035c-0.013,0.009 -0.034,0.013 -0.065,0.013Zm0.419,-0.024c-0.03,0.023 -0.054,0.032 -0.071,0.028c-0.017,-0.005 -0.036,-0.02 -0.056,-0.047l-0.184,-0.25l0.208,-0.026l0.124,0.167c0.013,0.019 0.022,0.036 0.026,0.049c0.003,0.013 0.001,0.026 -0.006,0.038c-0.007,0.012 -0.021,0.026 -0.041,0.041Zm-0.327,-0.346l0.11,0c0.006,0 0.013,-0.001 0.022,-0.003c0.008,-0.003 0.016,-0.007 0.023,-0.012c0.007,-0.006 0.014,-0.014 0.019,-0.023c0.005,-0.009 0.007,-0.021 0.007,-0.035c0,-0.014 -0.003,-0.026 -0.01,-0.037c-0.007,-0.011 -0.015,-0.02 -0.026,-0.026c-0.011,-0.007 -0.024,-0.01 -0.037,-0.01l-0.108,0l0,0.146Z" style="fill:#00b0c6;fill-rule:nonzero;"/></g><g transform="matrix(238.378,0,0,238.378,420.225,884.564)"></g><g transform="matrix(238.378,0,0,238.378,476.244,884.564)"></g><g transform="matrix(238.378,0,0,238.378,532.263,884.564)"></g><g transform="matrix(238.378,0,0,238.378,588.282,884.564)"><path d="M0.549,-0.692c0.013,0 0.025,0.001 0.036,0.003c0.011,0.002 0.021,0.008 0.028,0.019c0.008,0.011 0.012,0.029 0.012,0.055c-0,0.025 -0.004,0.043 -0.012,0.054c-0.007,0.011 -0.017,0.018 -0.029,0.02c-0.011,0.002 -0.023,0.003 -0.036,0.003l-0.138,-0l0,0.458c-0,0.015 -0.001,0.029 -0.004,0.042c-0.003,0.014 -0.01,0.025 -0.023,0.034c-0.012,0.009 -0.033,0.013 -0.064,0.013c-0.029,-0 -0.05,-0.005 -0.063,-0.014c-0.013,-0.009 -0.02,-0.02 -0.022,-0.034c-0.003,-0.013 -0.004,-0.027 -0.004,-0.042l0,-0.457l-0.139,-0c-0.012,-0 -0.024,-0.001 -0.035,-0.004c-0.012,-0.002 -0.022,-0.008 -0.029,-0.019c-0.008,-0.011 -0.012,-0.029 -0.012,-0.055c0,-0.025 0.004,-0.043 0.012,-0.054c0.007,-0.011 0.017,-0.017 0.029,-0.019c0.012,-0.002 0.024,-0.003 0.036,-0.003l0.457,0Z" style="fill:#00b0c6;fill-rule:nonzero;"/></g><g transform="matrix(238.378,0,0,238.378,726.541,884.564)"><path d="M0.376,0.019c-0.026,0 -0.055,-0.004 -0.087,-0.012c-0.032,-0.009 -0.064,-0.022 -0.096,-0.04c-0.033,-0.018 -0.062,-0.041 -0.089,-0.07c-0.027,-0.029 -0.049,-0.063 -0.065,-0.103c-0.017,-0.04 -0.025,-0.086 -0.025,-0.139c0,-0.051 0.008,-0.095 0.025,-0.134c0.016,-0.039 0.037,-0.072 0.064,-0.1c0.027,-0.028 0.056,-0.051 0.089,-0.068c0.032,-0.017 0.064,-0.03 0.097,-0.038c0.033,-0.009 0.063,-0.013 0.09,-0.013c0.034,0 0.064,0.004 0.09,0.013c0.026,0.008 0.047,0.017 0.064,0.026c0.016,0.009 0.026,0.014 0.03,0.017c0.013,0.009 0.026,0.018 0.038,0.028c0.011,0.011 0.017,0.025 0.017,0.042c0,0.009 -0.002,0.018 -0.005,0.027c-0.004,0.009 -0.01,0.019 -0.017,0.029c-0.013,0.019 -0.026,0.032 -0.037,0.041c-0.012,0.009 -0.024,0.013 -0.035,0.013c-0.009,-0 -0.017,-0.002 -0.025,-0.006c-0.008,-0.004 -0.018,-0.01 -0.029,-0.017c-0.005,-0.003 -0.011,-0.007 -0.018,-0.012c-0.007,-0.004 -0.017,-0.008 -0.03,-0.012c-0.013,-0.003 -0.029,-0.005 -0.05,-0.005c-0.017,-0 -0.036,0.003 -0.056,0.009c-0.021,0.007 -0.04,0.017 -0.058,0.03c-0.018,0.014 -0.033,0.032 -0.044,0.054c-0.011,0.023 -0.017,0.05 -0.017,0.081c0,0.032 0.006,0.059 0.018,0.081c0.011,0.022 0.026,0.04 0.044,0.053c0.018,0.014 0.037,0.024 0.058,0.03c0.02,0.007 0.038,0.01 0.055,0.01c0.017,-0 0.032,-0.002 0.044,-0.005c0.012,-0.003 0.023,-0.007 0.033,-0.012c0.009,-0.005 0.018,-0.011 0.026,-0.016c0.007,-0.005 0.015,-0.01 0.024,-0.014c0.009,-0.004 0.017,-0.006 0.026,-0.006c0.011,-0 0.023,0.005 0.034,0.014c0.011,0.009 0.023,0.024 0.036,0.043c0.007,0.011 0.013,0.022 0.017,0.031c0.003,0.01 0.005,0.019 0.005,0.027c0,0.017 -0.006,0.03 -0.017,0.04c-0.012,0.01 -0.025,0.019 -0.038,0.027c-0.005,0.003 -0.015,0.009 -0.03,0.018c-0.015,0.009 -0.036,0.018 -0.062,0.026c-0.026,0.008 -0.057,0.012 -0.094,0.012Z" style="fill:#00b0c6;fill-rule:nonzero;"/></g><g transform="matrix(238.378,0,0,238.378,876.958,884.564)"><path d="M0.53,0.008c-0.03,0 -0.051,-0.005 -0.064,-0.014c-0.013,-0.008 -0.02,-0.02 -0.023,-0.035c-0.003,-0.014 -0.004,-0.028 -0.004,-0.043l0,-0.516c0,-0.015 0.001,-0.029 0.004,-0.043c0.003,-0.014 0.01,-0.025 0.023,-0.034c0.013,-0.009 0.034,-0.014 0.065,-0.014c0.031,-0 0.052,0.005 0.065,0.014c0.012,0.009 0.019,0.02 0.022,0.034c0.003,0.014 0.004,0.029 0.004,0.044l-0,0.516c-0,0.015 -0.001,0.029 -0.004,0.043c-0.003,0.014 -0.01,0.025 -0.023,0.034c-0.013,0.009 -0.034,0.014 -0.065,0.014Zm-0.411,-0c-0.03,-0 -0.051,-0.005 -0.064,-0.014c-0.013,-0.009 -0.02,-0.02 -0.023,-0.035c-0.003,-0.014 -0.004,-0.028 -0.004,-0.043l0,-0.516c0,-0.015 0.001,-0.029 0.004,-0.043c0.003,-0.014 0.01,-0.025 0.023,-0.034c0.013,-0.009 0.034,-0.014 0.065,-0.014c0.031,-0 0.052,0.005 0.065,0.014c0.012,0.009 0.019,0.02 0.022,0.034c0.003,0.014 0.004,0.029 0.004,0.044l0,0.516c0,0.015 -0.001,0.029 -0.004,0.043c-0.003,0.014 -0.01,0.025 -0.023,0.034c-0.013,0.009 -0.034,0.014 -0.065,0.014Zm0.076,-0.271l0,-0.156l0.26,-0l0,0.156l-0.26,-0Z" style="fill:#00b0c6;fill-rule:nonzero;"/></g><g transform="matrix(238.378,0,0,238.378,1031.9,884.564)"></g><path d="M521.783,869.523l-51.92,8.946l0.786,-0.15l-8.262,0.857l-8.438,-0.939l-7.83,-2.699l-6.696,-4.017l-5.493,-4.874l-4.499,-5.803l-3.268,-6.446c-0.841,-2.132 -1.511,-4.381 -1.995,-6.752l-0.783,-7.385l0.734,-7.583l2.304,-7.338l3.657,-6.684l74.718,-111.071l4.853,-5.897l6.16,-5.005l7.085,-3.69l7.431,-2.227l8.271,-0.842l8.413,0.986l7.733,2.717l6.583,3.973l5.562,4.96l4.511,5.888c2.437,3.912 4.22,8.325 5.228,13.285c0.039,0.19 0.074,0.381 0.107,0.573l30.193,175.234l-0.115,11.041l-1.741,5.656l-2.823,5.21l-3.907,4.733l-5.128,4.111l-5.965,2.991l-6.166,1.671l-15.951,2.749l-6.37,0.488l-6.621,-0.822l-6.209,-2.158l-5.266,-3.153l-4.404,-3.965l-3.533,-4.747l-3.803,-10.365l-7.143,-41.457Zm63.234,31.792l-30.192,-175.234c-1.029,-5.06 -3.515,-9.051 -7.46,-11.972c-3.944,-2.921 -8.182,-3.909 -12.712,-2.965c-4.834,0.997 -8.558,3.439 -11.173,7.326l-74.718,111.071c-2.864,4.258 -3.796,8.837 -2.795,13.738c1.001,4.901 3.474,8.812 7.418,11.733c3.945,2.921 8.258,3.896 12.94,2.926l64.716,-11.151c2.583,-0.445 4.905,0.096 6.967,1.623c2.062,1.527 3.326,3.641 3.791,6.343l9.037,52.452c0.466,2.702 1.73,4.816 3.792,6.343c2.062,1.527 4.384,2.068 6.966,1.623l15.952,-2.749c2.582,-0.445 4.589,-1.731 6.022,-3.86c1.432,-2.129 1.915,-4.545 1.449,-7.247Zm-51.844,-96.629c0.547,3.179 -0.698,5.03 -3.736,5.554l-17.319,2.984c-3.038,0.523 -4.831,-0.804 -5.379,-3.983c-0.219,-1.272 -0.017,-2.37 0.606,-3.296l14.57,-21.659c0.622,-0.925 1.541,-1.493 2.757,-1.702c3.038,-0.524 4.831,0.804 5.379,3.983l3.122,18.119Z" style="fill:#9489ba;"/></g></g></svg>