<?xml version="1.0" encoding="UTF-8" standalone="no"?><!DOCTYPE svg PUBLIC "-//W3C//DTD SVG 1.1//EN" "http://www.w3.org/Graphics/SVG/1.1/DTD/svg11.dtd"><svg width="100%" height="100%" viewBox="0 0 1348 247" version="1.1" xmlns="http://www.w3.org/2000/svg" xmlns:xlink="http://www.w3.org/1999/xlink" xml:space="preserve" xmlns:serif="http://www.serif.com/" style="fill-rule:evenodd;clip-rule:evenodd;stroke-linejoin:round;stroke-miterlimit:2;"><g id="Horizontal---Black" serif:id="Horizontal - Black"><g><g><path d="M235.924,154.015l0,47.941c0,24.456 -19.854,44.31 -44.31,44.31l-147.304,0c-24.455,0 -44.31,-19.854 -44.31,-44.31l-0,-144.094c-0,-21.381 15.176,-39.245 35.335,-43.399l0.628,-2.024l1.603,-2.951l2.113,-2.561l2.561,-2.114l2.951,-1.602l3.27,-1.016l3.49,-0.353l3.489,0.353l3.27,1.016l2.951,1.602l2.561,2.114l2.114,2.561l1.602,2.951l0.346,1.113l32.931,-0l0.346,-1.113l1.602,-2.951l2.113,-2.561l2.562,-2.114l2.951,-1.602l3.27,-1.016l3.489,-0.353l3.489,0.353l3.27,1.016l2.951,1.602l2.561,2.114l2.114,2.561l1.602,2.951l0.346,1.113l32.917,-0l0.918,-2.955l1.603,-2.951l2.113,-2.561l2.561,-2.114l2.951,-1.602l3.27,-1.016l3.49,-0.353l3.489,0.353l3.27,1.016l2.951,1.602l2.561,2.114l2.114,2.561l1.602,2.951l1.016,3.27l0.064,0.634c19.022,4.003 33.567,20.223 35.032,40.056l2.484,0.157c0.075,0.005 0.15,0.014 0.224,0.027l4.962,0.868c0.148,0.026 0.293,0.068 0.432,0.126l4.652,1.932c0.069,0.029 0.137,0.061 0.202,0.098l2.893,1.594c0.072,0.039 0.14,0.083 0.206,0.13l4.422,3.176c0.066,0.047 0.129,0.099 0.189,0.153l9.797,8.981c0.059,0.055 0.116,0.113 0.169,0.175l3.547,4.13c0.053,0.061 0.102,0.126 0.148,0.193l1.839,2.744c0.042,0.062 0.08,0.127 0.115,0.194l2.328,4.467c0.07,0.133 0.124,0.274 0.163,0.419l1.296,4.868c0.019,0.072 0.034,0.146 0.045,0.22l0.502,3.322c0.01,0.064 0.017,0.128 0.02,0.193l0.239,4.331c0.007,0.129 0.002,0.259 -0.015,0.387l-0.582,4.299c-0.009,0.064 -0.02,0.127 -0.035,0.19l-0.816,3.498c-0.014,0.057 -0.03,0.114 -0.048,0.17l-1.224,3.75c-0.037,0.112 -0.083,0.22 -0.138,0.324l-1.849,3.485c-0.028,0.052 -0.058,0.102 -0.09,0.152l-2.117,3.273c-0.031,0.048 -0.064,0.094 -0.099,0.14l-2.348,3.037c-0.035,0.046 -0.072,0.089 -0.111,0.132l-31.281,34.123Zm-15.546,-96.446c-0.124,-12.441 -8.163,-23.002 -19.318,-26.883l-0,11.816l-0.353,3.49l-1.016,3.27l-1.602,2.95l-2.114,2.562l-2.561,2.113l-2.951,1.602l-3.27,1.016l-3.489,0.353l-3.49,-0.353l-3.27,-1.016l-2.951,-1.602l-2.561,-2.113l-2.113,-2.562l-1.603,-2.95l-1.016,-3.27l-0.353,-3.49l0,-13.405l-31.443,-0l0,15.247l-0.353,3.49l-1.016,3.27l-1.602,2.95l-2.114,2.562l-2.561,2.113l-2.951,1.603l-3.27,1.016l-3.489,0.352l-3.489,-0.352l-3.27,-1.016l-2.951,-1.603l-2.562,-2.113l-2.113,-2.562l-1.602,-2.95l-1.016,-3.27l-0.353,-3.49l-0,-15.247l-30.885,-0l-0,15.247l-0.353,3.49l-1.016,3.27l-1.602,2.95l-2.114,2.562l-2.561,2.113l-2.951,1.603l-3.27,1.016l-3.489,0.352l-3.49,-0.352l-3.27,-1.016l-2.951,-1.603l-2.561,-2.113l-2.113,-2.562l-1.603,-2.95l-1.016,-3.27l-0.353,-3.49l0,-13.563c-11.101,3.988 -19.049,14.614 -19.049,27.081l-0,144.094c-0,15.876 12.889,28.766 28.765,28.766l147.304,-0c15.876,-0 28.765,-12.89 28.765,-28.766l0,-37.149c-0.026,0.001 -0.052,0.002 -0.078,0.003l0,-14.668l36.743,-39.925c0.402,-0.439 0.767,-0.911 1.09,-1.411l2.117,-3.273c0.666,-1.029 1.149,-2.165 1.428,-3.359l0.816,-3.498c0.307,-1.313 0.361,-2.673 0.159,-4.006l-0.502,-3.322c-0.234,-1.551 -0.809,-3.031 -1.682,-4.334l-1.84,-2.744c-0.471,-0.702 -1.023,-1.345 -1.647,-1.917l-9.796,-8.98c-0.624,-0.572 -1.313,-1.067 -2.053,-1.475l-2.893,-1.595c-1.374,-0.757 -2.898,-1.201 -4.464,-1.3l-3.352,-0.211c-1.346,-0.086 -2.696,0.086 -3.978,0.506l-3.414,1.117c-1.165,0.381 -2.255,0.96 -3.223,1.713l-3.077,2.393c-0.02,0.016 -0.169,0.128 -0.354,0.268c-0.025,0.02 -0.051,0.039 -0.078,0.06l0,-17.247l0.077,-0.033Zm-111.187,-13.225c0,4.612 3.745,8.357 8.357,8.357c4.612,-0 8.356,-3.745 8.356,-8.357l0,-25.146c0,-2.176 -0.833,-4.159 -2.198,-5.646c-1.528,-1.666 -3.722,-2.71 -6.158,-2.71c-2.436,-0 -4.63,1.044 -6.158,2.71c-1.365,1.487 -2.199,3.47 -2.199,5.646l0,25.146Zm66.156,-1.842c-0,4.612 3.744,8.357 8.357,8.357c4.612,-0 8.356,-3.745 8.356,-8.357l0,-25.146c0,-1.37 -0.33,-2.663 -0.915,-3.804c-1.386,-2.702 -4.199,-4.552 -7.441,-4.552c-3.243,-0 -6.056,1.85 -7.442,4.552c-0.585,1.141 -0.915,2.434 -0.915,3.804l-0,25.146Zm-131.753,1.842c0,4.612 3.744,8.357 8.357,8.357c4.612,-0 8.356,-3.745 8.356,-8.357l0,-25.146c0,-2.176 -0.833,-4.159 -2.198,-5.646c-1.528,-1.666 -3.722,-2.71 -6.158,-2.71c-2.437,-0 -4.631,1.044 -6.159,2.71c-1.364,1.487 -2.198,3.47 -2.198,5.646l0,25.146Z"/><path d="M173.483,94.897l-127.853,0c-4.851,0 -8.79,-3.939 -8.79,-8.79c-0,-4.852 3.939,-8.791 8.79,-8.791l127.853,0c4.852,0 8.791,3.939 8.791,8.791c-0,4.851 -3.939,8.79 -8.791,8.79Z"/><path d="M149.219,126.953l-103.589,0c-4.851,0 -8.79,-3.939 -8.79,-8.79c-0,-4.852 3.939,-8.791 8.79,-8.791l103.589,-0c4.852,-0 8.791,3.939 8.791,8.791c-0,4.851 -3.939,8.79 -8.791,8.79Z"/><path d="M120.699,160.904l-75.069,-0c-4.851,-0 -8.79,-3.939 -8.79,-8.791c-0,-4.851 3.939,-8.79 8.79,-8.79l75.069,-0c4.852,-0 8.791,3.939 8.791,8.79c-0,4.852 -3.939,8.791 -8.791,8.791Z"/><path d="M137.964,204.837c-0.013,-0.001 -0.026,-0.003 -0.039,-0.005c-1.817,-0.251 -2.822,-2.013 -2.243,-3.932l7.573,-25.137c0.194,-0.644 0.542,-1.224 0.987,-1.702l1.274,-1.97l81.747,-89.175l3.077,-2.393l3.414,-1.117l3.353,0.212l2.892,1.595l9.797,8.98l1.84,2.744l0.502,3.322l-0.817,3.498l-2.117,3.273l-81.747,89.174l-1.745,1.357c-0.311,0.331 -0.675,0.618 -1.081,0.841l-0.251,0.195l-0.767,0.251l-23.818,9.739c-0.629,0.257 -1.258,0.333 -1.831,0.25Zm8.861,-18.168l-1.608,5.335l2.478,2.271l5.136,-2.1l-6.006,-5.506Zm69.251,-81.035l-65.322,71.258c-0.505,0.551 -0.542,1.342 -0.081,1.764l9.796,8.981c0.461,0.422 1.245,0.317 1.751,-0.234l65.322,-71.258l-11.466,-10.511Zm16.572,4.941l11.318,-12.347c0.506,-0.551 0.542,-1.342 0.082,-1.764l-9.797,-8.98c-0.461,-0.423 -1.245,-0.318 -1.75,0.234l-11.319,12.347l11.466,10.51Z"/><path d="M43.988,205.857c0.204,-0.087 0.932,-0.417 1.513,-0.961c0.996,-0.929 2.063,-2.353 3.227,-4.432c5.741,-10.26 12.075,-16.206 13.264,-17.275c0.486,-0.52 1.563,-1.563 2.975,-2.279c0.444,-0.225 0.918,-0.419 1.413,-0.568l1.743,-0.312l1.316,0.043l1.366,0.308c2.328,0.771 5.549,3.277 7.448,10.986c0.957,3.887 1.773,7.317 2.786,9.925c0.318,0.82 0.648,1.543 1.028,2.139c0.213,0.335 0.359,0.666 0.656,0.775c0.35,0.128 0.725,-0.121 1.237,-0.35c1.449,-0.648 3.139,-1.887 5.21,-3.73c4.495,-4.001 6.919,-6.306 8.389,-7.37c0.676,-0.49 1.254,-0.809 1.742,-1.014l1.752,-0.435l1.094,0.034l1.084,0.282l1.071,0.566l1.035,0.919c0.669,0.746 1.373,2.348 3.212,4.397c2.428,2.705 4.515,5.133 7.42,5.551c1.773,0.256 3.753,-0.37 6.249,-1.864c1.937,-1.16 4.451,-0.528 5.611,1.409c1.159,1.937 0.528,4.451 -1.409,5.611c-4.587,2.745 -8.359,3.411 -11.617,2.942c-4.642,-0.668 -8.462,-3.86 -12.343,-8.184c-0.62,-0.691 -1.21,-1.454 -1.711,-2.147c-1.429,1.248 -3.596,3.15 -6.14,5.415c-3.546,3.155 -6.43,4.896 -8.73,5.633c-2.314,0.742 -4.277,0.639 -5.976,0.015c-2.268,-0.833 -4.215,-2.735 -5.695,-5.792c-1.479,-3.054 -2.609,-7.532 -3.899,-12.77c-0.485,-1.967 -1.007,-3.399 -1.591,-4.407c-0.095,-0.165 -0.22,-0.338 -0.333,-0.483l-0.353,0.265c-0.148,0.181 -0.312,0.348 -0.489,0.501c0,0 -6.125,5.34 -11.676,15.259c-3.937,7.037 -7.76,8.928 -10.245,9.431c-1.493,0.302 -2.75,0.165 -3.72,-0.089l-1.534,-0.579l-0.225,-0.143c0.959,0.456 1.651,0.321 1.651,0.321l-2.626,-0.954c-1.731,-1.449 -1.96,-4.032 -0.51,-5.763c1.333,-1.592 3.624,-1.913 5.33,-0.826Zm-3.845,7.222c-0.284,-0.136 -0.592,-0.323 -0.912,-0.581l0.912,0.581Z"/></g></g><g transform="matrix(238.378,0,0,238.378,318.487,194.641)"><path d="M0.271,0.019c-0.041,0 -0.075,-0.005 -0.104,-0.015c-0.028,-0.01 -0.051,-0.022 -0.069,-0.036c-0.018,-0.013 -0.032,-0.026 -0.041,-0.037c-0.009,-0.011 -0.015,-0.018 -0.017,-0.021c-0.013,-0.017 -0.022,-0.032 -0.025,-0.045c-0.003,-0.013 -0.001,-0.027 0.007,-0.04c0.007,-0.013 0.018,-0.028 0.035,-0.044c0.015,-0.015 0.03,-0.023 0.045,-0.024c0.015,-0.002 0.029,0.001 0.043,0.009c0.015,0.008 0.029,0.02 0.042,0.035c0.016,0.018 0.03,0.03 0.041,0.037c0.011,0.006 0.024,0.009 0.039,0.009c0.018,0 0.033,-0.002 0.044,-0.007c0.011,-0.004 0.02,-0.011 0.025,-0.019c0.005,-0.01 0.008,-0.021 0.008,-0.035c0,-0.011 -0.006,-0.02 -0.017,-0.026c-0.011,-0.007 -0.026,-0.012 -0.044,-0.017c-0.019,-0.005 -0.039,-0.01 -0.062,-0.016c-0.023,-0.005 -0.045,-0.013 -0.067,-0.022c-0.013,-0.005 -0.026,-0.012 -0.039,-0.02c-0.013,-0.008 -0.025,-0.017 -0.036,-0.027c-0.011,-0.011 -0.02,-0.023 -0.028,-0.037c-0.008,-0.015 -0.014,-0.031 -0.019,-0.049c-0.004,-0.018 -0.006,-0.038 -0.006,-0.061c-0,-0.041 0.01,-0.077 0.03,-0.109c0.021,-0.032 0.049,-0.057 0.084,-0.076c0.036,-0.019 0.077,-0.028 0.122,-0.028c0.033,0 0.061,0.003 0.084,0.008c0.023,0.005 0.042,0.012 0.057,0.019c0.016,0.007 0.027,0.014 0.035,0.021c0.008,0.006 0.013,0.01 0.015,0.012c0.022,0.02 0.034,0.037 0.036,0.051c0.002,0.015 -0.006,0.035 -0.024,0.062c-0.02,0.029 -0.04,0.045 -0.059,0.048c-0.019,0.004 -0.042,-0.002 -0.067,-0.018c-0.005,-0.004 -0.011,-0.009 -0.016,-0.014c-0.005,-0.005 -0.013,-0.009 -0.022,-0.013c-0.009,-0.003 -0.022,-0.005 -0.04,-0.005c-0.007,-0 -0.013,0.001 -0.02,0.003c-0.007,0.003 -0.012,0.006 -0.017,0.009c-0.005,0.004 -0.009,0.009 -0.012,0.014c-0.003,0.005 -0.004,0.011 -0.004,0.017c-0,0.014 0.005,0.025 0.016,0.032c0.011,0.008 0.025,0.014 0.042,0.018c0.018,0.004 0.038,0.008 0.059,0.012c0.021,0.004 0.043,0.009 0.065,0.016c0.018,0.006 0.035,0.014 0.052,0.023c0.017,0.009 0.031,0.021 0.044,0.036c0.013,0.015 0.023,0.033 0.03,0.054c0.008,0.022 0.012,0.049 0.012,0.08c0,0.043 -0.008,0.08 -0.025,0.11c-0.017,0.031 -0.038,0.055 -0.065,0.073c-0.026,0.019 -0.054,0.032 -0.084,0.04c-0.029,0.009 -0.057,0.013 -0.083,0.013Z" style="fill-rule:nonzero;"/></g><g transform="matrix(238.378,0,0,238.378,447.688,194.641)"><path d="M0.376,0.019c-0.026,0 -0.055,-0.004 -0.087,-0.012c-0.032,-0.009 -0.064,-0.022 -0.096,-0.04c-0.033,-0.018 -0.062,-0.041 -0.089,-0.07c-0.027,-0.029 -0.049,-0.063 -0.065,-0.103c-0.017,-0.04 -0.025,-0.086 -0.025,-0.139c0,-0.051 0.008,-0.095 0.025,-0.134c0.016,-0.039 0.037,-0.072 0.064,-0.1c0.027,-0.028 0.056,-0.051 0.089,-0.068c0.032,-0.017 0.064,-0.03 0.097,-0.038c0.033,-0.009 0.063,-0.013 0.09,-0.013c0.034,0 0.064,0.004 0.09,0.013c0.026,0.008 0.047,0.017 0.064,0.026c0.016,0.009 0.026,0.014 0.03,0.017c0.013,0.009 0.026,0.018 0.038,0.028c0.011,0.011 0.017,0.025 0.017,0.042c0,0.009 -0.002,0.018 -0.005,0.027c-0.004,0.009 -0.01,0.019 -0.017,0.029c-0.013,0.019 -0.026,0.032 -0.037,0.041c-0.012,0.009 -0.024,0.013 -0.035,0.013c-0.009,-0 -0.017,-0.002 -0.025,-0.006c-0.008,-0.004 -0.018,-0.01 -0.029,-0.017c-0.005,-0.003 -0.011,-0.007 -0.018,-0.012c-0.007,-0.004 -0.017,-0.008 -0.03,-0.012c-0.013,-0.003 -0.029,-0.005 -0.05,-0.005c-0.017,-0 -0.036,0.003 -0.056,0.009c-0.021,0.007 -0.04,0.017 -0.058,0.03c-0.018,0.014 -0.033,0.032 -0.044,0.054c-0.011,0.023 -0.017,0.05 -0.017,0.081c0,0.032 0.006,0.059 0.018,0.081c0.011,0.022 0.026,0.04 0.044,0.053c0.018,0.014 0.037,0.024 0.058,0.03c0.02,0.007 0.038,0.01 0.055,0.01c0.017,-0 0.032,-0.002 0.044,-0.005c0.012,-0.003 0.023,-0.007 0.033,-0.012c0.009,-0.005 0.018,-0.011 0.026,-0.016c0.007,-0.005 0.015,-0.01 0.024,-0.014c0.009,-0.004 0.017,-0.006 0.026,-0.006c0.011,-0 0.023,0.005 0.034,0.014c0.011,0.009 0.023,0.024 0.036,0.043c0.007,0.011 0.013,0.022 0.017,0.031c0.003,0.01 0.005,0.019 0.005,0.027c0,0.017 -0.006,0.03 -0.017,0.04c-0.012,0.01 -0.025,0.019 -0.038,0.027c-0.005,0.003 -0.015,0.009 -0.03,0.018c-0.015,0.009 -0.036,0.018 -0.062,0.026c-0.026,0.008 -0.057,0.012 -0.094,0.012Z" style="fill-rule:nonzero;"/></g><g transform="matrix(238.378,0,0,238.378,598.105,194.641)"><path d="M0.126,0.008c-0.03,0 -0.051,-0.005 -0.064,-0.014c-0.013,-0.008 -0.02,-0.02 -0.023,-0.035c-0.003,-0.014 -0.004,-0.028 -0.004,-0.043l0,-0.516c0,-0.015 0.001,-0.029 0.004,-0.043c0.003,-0.014 0.01,-0.025 0.023,-0.034c0.013,-0.009 0.034,-0.014 0.065,-0.014l0.201,0c0.025,-0 0.053,0.005 0.082,0.016c0.029,0.01 0.057,0.026 0.083,0.047c0.026,0.021 0.047,0.048 0.064,0.08c0.017,0.032 0.025,0.07 0.025,0.114c-0,0.031 -0.005,0.059 -0.014,0.086c-0.009,0.027 -0.022,0.051 -0.04,0.073c-0.017,0.021 -0.038,0.04 -0.064,0.057c-0.025,0.016 -0.053,0.029 -0.085,0.038l-0.161,0l0,0.097c0,0.015 -0.001,0.029 -0.004,0.043c-0.003,0.014 -0.01,0.026 -0.023,0.035c-0.013,0.009 -0.034,0.013 -0.065,0.013Zm0.419,-0.024c-0.03,0.023 -0.054,0.032 -0.071,0.028c-0.017,-0.005 -0.036,-0.02 -0.056,-0.047l-0.184,-0.25l0.208,-0.026l0.124,0.167c0.013,0.019 0.022,0.036 0.026,0.049c0.003,0.013 0.001,0.026 -0.006,0.038c-0.007,0.012 -0.021,0.026 -0.041,0.041Zm-0.327,-0.346l0.11,0c0.006,0 0.013,-0.001 0.022,-0.003c0.008,-0.003 0.016,-0.007 0.023,-0.012c0.007,-0.006 0.014,-0.014 0.019,-0.023c0.005,-0.009 0.007,-0.021 0.007,-0.035c0,-0.014 -0.003,-0.026 -0.01,-0.037c-0.007,-0.011 -0.015,-0.02 -0.026,-0.026c-0.011,-0.007 -0.024,-0.01 -0.037,-0.01l-0.108,0l0,0.146Z" style="fill-rule:nonzero;"/></g><g transform="matrix(238.378,0,0,238.378,742.085,194.641)"></g><g transform="matrix(238.378,0,0,238.378,798.104,194.641)"></g><g transform="matrix(238.378,0,0,238.378,854.123,194.641)"></g><g transform="matrix(238.378,0,0,238.378,910.142,194.641)"><path d="M0.549,-0.692c0.013,0 0.025,0.001 0.036,0.003c0.011,0.002 0.021,0.008 0.028,0.019c0.008,0.011 0.012,0.029 0.012,0.055c-0,0.025 -0.004,0.043 -0.012,0.054c-0.007,0.011 -0.017,0.018 -0.029,0.02c-0.011,0.002 -0.023,0.003 -0.036,0.003l-0.138,-0l0,0.458c-0,0.015 -0.001,0.029 -0.004,0.042c-0.003,0.014 -0.01,0.025 -0.023,0.034c-0.012,0.009 -0.033,0.013 -0.064,0.013c-0.029,-0 -0.05,-0.005 -0.063,-0.014c-0.013,-0.009 -0.02,-0.02 -0.022,-0.034c-0.003,-0.013 -0.004,-0.027 -0.004,-0.042l0,-0.457l-0.139,-0c-0.012,-0 -0.024,-0.001 -0.035,-0.004c-0.012,-0.002 -0.022,-0.008 -0.029,-0.019c-0.008,-0.011 -0.012,-0.029 -0.012,-0.055c0,-0.025 0.004,-0.043 0.012,-0.054c0.007,-0.011 0.017,-0.017 0.029,-0.019c0.012,-0.002 0.024,-0.003 0.036,-0.003l0.457,0Z" style="fill-rule:nonzero;"/></g><g transform="matrix(238.378,0,0,238.378,1048.4,194.641)"><path d="M0.376,0.019c-0.026,0 -0.055,-0.004 -0.087,-0.012c-0.032,-0.009 -0.064,-0.022 -0.096,-0.04c-0.033,-0.018 -0.062,-0.041 -0.089,-0.07c-0.027,-0.029 -0.049,-0.063 -0.065,-0.103c-0.017,-0.04 -0.025,-0.086 -0.025,-0.139c0,-0.051 0.008,-0.095 0.025,-0.134c0.016,-0.039 0.037,-0.072 0.064,-0.1c0.027,-0.028 0.056,-0.051 0.089,-0.068c0.032,-0.017 0.064,-0.03 0.097,-0.038c0.033,-0.009 0.063,-0.013 0.09,-0.013c0.034,0 0.064,0.004 0.09,0.013c0.026,0.008 0.047,0.017 0.064,0.026c0.016,0.009 0.026,0.014 0.03,0.017c0.013,0.009 0.026,0.018 0.038,0.028c0.011,0.011 0.017,0.025 0.017,0.042c0,0.009 -0.002,0.018 -0.005,0.027c-0.004,0.009 -0.01,0.019 -0.017,0.029c-0.013,0.019 -0.026,0.032 -0.037,0.041c-0.012,0.009 -0.024,0.013 -0.035,0.013c-0.009,-0 -0.017,-0.002 -0.025,-0.006c-0.008,-0.004 -0.018,-0.01 -0.029,-0.017c-0.005,-0.003 -0.011,-0.007 -0.018,-0.012c-0.007,-0.004 -0.017,-0.008 -0.03,-0.012c-0.013,-0.003 -0.029,-0.005 -0.05,-0.005c-0.017,-0 -0.036,0.003 -0.056,0.009c-0.021,0.007 -0.04,0.017 -0.058,0.03c-0.018,0.014 -0.033,0.032 -0.044,0.054c-0.011,0.023 -0.017,0.05 -0.017,0.081c0,0.032 0.006,0.059 0.018,0.081c0.011,0.022 0.026,0.04 0.044,0.053c0.018,0.014 0.037,0.024 0.058,0.03c0.02,0.007 0.038,0.01 0.055,0.01c0.017,-0 0.032,-0.002 0.044,-0.005c0.012,-0.003 0.023,-0.007 0.033,-0.012c0.009,-0.005 0.018,-0.011 0.026,-0.016c0.007,-0.005 0.015,-0.01 0.024,-0.014c0.009,-0.004 0.017,-0.006 0.026,-0.006c0.011,-0 0.023,0.005 0.034,0.014c0.011,0.009 0.023,0.024 0.036,0.043c0.007,0.011 0.013,0.022 0.017,0.031c0.003,0.01 0.005,0.019 0.005,0.027c0,0.017 -0.006,0.03 -0.017,0.04c-0.012,0.01 -0.025,0.019 -0.038,0.027c-0.005,0.003 -0.015,0.009 -0.03,0.018c-0.015,0.009 -0.036,0.018 -0.062,0.026c-0.026,0.008 -0.057,0.012 -0.094,0.012Z" style="fill-rule:nonzero;"/></g><g transform="matrix(238.378,0,0,238.378,1198.82,194.641)"><path d="M0.53,0.008c-0.03,0 -0.051,-0.005 -0.064,-0.014c-0.013,-0.008 -0.02,-0.02 -0.023,-0.035c-0.003,-0.014 -0.004,-0.028 -0.004,-0.043l0,-0.516c0,-0.015 0.001,-0.029 0.004,-0.043c0.003,-0.014 0.01,-0.025 0.023,-0.034c0.013,-0.009 0.034,-0.014 0.065,-0.014c0.031,-0 0.052,0.005 0.065,0.014c0.012,0.009 0.019,0.02 0.022,0.034c0.003,0.014 0.004,0.029 0.004,0.044l-0,0.516c-0,0.015 -0.001,0.029 -0.004,0.043c-0.003,0.014 -0.01,0.025 -0.023,0.034c-0.013,0.009 -0.034,0.014 -0.065,0.014Zm-0.411,-0c-0.03,-0 -0.051,-0.005 -0.064,-0.014c-0.013,-0.009 -0.02,-0.02 -0.023,-0.035c-0.003,-0.014 -0.004,-0.028 -0.004,-0.043l0,-0.516c0,-0.015 0.001,-0.029 0.004,-0.043c0.003,-0.014 0.01,-0.025 0.023,-0.034c0.013,-0.009 0.034,-0.014 0.065,-0.014c0.031,-0 0.052,0.005 0.065,0.014c0.012,0.009 0.019,0.02 0.022,0.034c0.003,0.014 0.004,0.029 0.004,0.044l0,0.516c0,0.015 -0.001,0.029 -0.004,0.043c-0.003,0.014 -0.01,0.025 -0.023,0.034c-0.013,0.009 -0.034,0.014 -0.065,0.014Zm0.076,-0.271l0,-0.156l0.26,-0l0,0.156l-0.26,-0Z" style="fill-rule:nonzero;"/></g><g transform="matrix(238.378,0,0,238.378,1353.76,194.641)"></g><path d="M843.643,179.599l-51.92,8.946l0.786,-0.149l-8.262,0.856l-8.438,-0.939l-7.83,-2.699l-6.695,-4.016l-5.494,-4.875l-4.499,-5.803l-3.268,-6.445c-0.84,-2.132 -1.511,-4.382 -1.995,-6.753l-0.783,-7.384l0.734,-7.584l2.304,-7.338l3.657,-6.684l74.718,-111.07l4.853,-5.898l6.161,-5.004l7.084,-3.691l7.431,-2.227l8.271,-0.842l8.413,0.986l7.733,2.717l6.583,3.973l5.563,4.96l4.51,5.889c2.437,3.911 4.22,8.324 5.228,13.284c0.039,0.19 0.075,0.381 0.108,0.573l30.192,175.234l-0.115,11.041l-1.741,5.656l-2.823,5.21l-3.907,4.733l-5.128,4.112l-5.965,2.99l-6.166,1.671l-15.951,2.749l-6.37,0.488l-6.621,-0.822l-6.209,-2.158l-5.266,-3.153l-4.404,-3.964l-3.533,-4.748l-3.803,-10.365l-7.143,-41.457Zm63.234,31.793l-30.192,-175.235c-1.028,-5.06 -3.515,-9.051 -7.459,-11.971c-3.945,-2.921 -8.182,-3.91 -12.712,-2.965c-4.834,0.996 -8.559,3.438 -11.174,7.326l-74.718,111.07c-2.864,4.258 -3.796,8.837 -2.795,13.738c1.001,4.901 3.474,8.812 7.418,11.733c3.945,2.921 8.258,3.896 12.94,2.926l64.716,-11.15c2.583,-0.445 4.905,0.096 6.967,1.622c2.062,1.527 3.326,3.642 3.791,6.344l9.038,52.451c0.465,2.702 1.729,4.816 3.791,6.343c2.062,1.527 4.384,2.068 6.967,1.623l15.951,-2.748c2.582,-0.445 4.59,-1.732 6.022,-3.861c1.432,-2.129 1.915,-4.544 1.449,-7.246Zm-51.844,-96.629c0.548,3.179 -0.698,5.03 -3.736,5.553l-17.318,2.984c-3.039,0.524 -4.832,-0.804 -5.379,-3.983c-0.22,-1.271 -0.018,-2.37 0.605,-3.296l14.57,-21.658c0.623,-0.926 1.542,-1.493 2.757,-1.703c3.038,-0.523 4.831,0.804 5.379,3.983l3.122,18.12Z"/></g><g id="Horizontal---Fun-Colors" serif:id="Horizontal - Fun Colors"></g></svg>