<?xml version="1.0" encoding="UTF-8" standalone="no"?><!DOCTYPE svg PUBLIC "-//W3C//DTD SVG 1.1//EN" "http://www.w3.org/Graphics/SVG/1.1/DTD/svg11.dtd"><svg width="100%" height="100%" viewBox="0 0 1026 247" version="1.1" xmlns="http://www.w3.org/2000/svg" xmlns:xlink="http://www.w3.org/1999/xlink" xml:space="preserve" xmlns:serif="http://www.serif.com/" style="fill-rule:evenodd;clip-rule:evenodd;stroke-linejoin:round;stroke-miterlimit:2;"><g><g transform="matrix(238.378,0,0,238.378,-3.37305,193.148)"><path d="M0.271,0.019c-0.041,0 -0.075,-0.005 -0.104,-0.015c-0.028,-0.01 -0.051,-0.022 -0.069,-0.036c-0.018,-0.013 -0.032,-0.026 -0.041,-0.037c-0.009,-0.011 -0.015,-0.018 -0.017,-0.021c-0.013,-0.017 -0.022,-0.032 -0.025,-0.045c-0.003,-0.013 -0.001,-0.027 0.007,-0.04c0.007,-0.013 0.018,-0.028 0.035,-0.044c0.015,-0.015 0.03,-0.023 0.045,-0.024c0.015,-0.002 0.029,0.001 0.043,0.009c0.015,0.008 0.029,0.02 0.042,0.035c0.016,0.018 0.03,0.03 0.041,0.037c0.011,0.006 0.024,0.009 0.039,0.009c0.018,0 0.033,-0.002 0.044,-0.007c0.011,-0.004 0.02,-0.011 0.025,-0.019c0.005,-0.01 0.008,-0.021 0.008,-0.035c0,-0.011 -0.006,-0.02 -0.017,-0.026c-0.011,-0.007 -0.026,-0.012 -0.044,-0.017c-0.019,-0.005 -0.039,-0.01 -0.062,-0.016c-0.023,-0.005 -0.045,-0.013 -0.067,-0.022c-0.013,-0.005 -0.026,-0.012 -0.039,-0.02c-0.013,-0.008 -0.025,-0.017 -0.036,-0.027c-0.011,-0.011 -0.02,-0.023 -0.028,-0.037c-0.008,-0.015 -0.014,-0.031 -0.019,-0.049c-0.004,-0.018 -0.006,-0.038 -0.006,-0.061c-0,-0.041 0.01,-0.077 0.03,-0.109c0.021,-0.032 0.049,-0.057 0.084,-0.076c0.036,-0.019 0.077,-0.028 0.122,-0.028c0.033,0 0.061,0.003 0.084,0.008c0.023,0.005 0.042,0.012 0.057,0.019c0.016,0.007 0.027,0.014 0.035,0.021c0.008,0.006 0.013,0.01 0.015,0.012c0.022,0.02 0.034,0.037 0.036,0.051c0.002,0.015 -0.006,0.035 -0.024,0.062c-0.02,0.029 -0.04,0.045 -0.059,0.048c-0.019,0.004 -0.042,-0.002 -0.067,-0.018c-0.005,-0.004 -0.011,-0.009 -0.016,-0.014c-0.005,-0.005 -0.013,-0.009 -0.022,-0.013c-0.009,-0.003 -0.022,-0.005 -0.04,-0.005c-0.007,-0 -0.013,0.001 -0.02,0.003c-0.007,0.003 -0.012,0.006 -0.017,0.009c-0.005,0.004 -0.009,0.009 -0.012,0.014c-0.003,0.005 -0.004,0.011 -0.004,0.017c-0,0.014 0.005,0.025 0.016,0.032c0.011,0.008 0.025,0.014 0.042,0.018c0.018,0.004 0.038,0.008 0.059,0.012c0.021,0.004 0.043,0.009 0.065,0.016c0.018,0.006 0.035,0.014 0.052,0.023c0.017,0.009 0.031,0.021 0.044,0.036c0.013,0.015 0.023,0.033 0.03,0.054c0.008,0.022 0.012,0.049 0.012,0.08c0,0.043 -0.008,0.08 -0.025,0.11c-0.017,0.031 -0.038,0.055 -0.065,0.073c-0.026,0.019 -0.054,0.032 -0.084,0.04c-0.029,0.009 -0.057,0.013 -0.083,0.013Z" style="fill-rule:nonzero;"/></g><g transform="matrix(238.378,0,0,238.378,125.828,193.148)"><path d="M0.376,0.019c-0.026,0 -0.055,-0.004 -0.087,-0.012c-0.032,-0.009 -0.064,-0.022 -0.096,-0.04c-0.033,-0.018 -0.062,-0.041 -0.089,-0.07c-0.027,-0.029 -0.049,-0.063 -0.065,-0.103c-0.017,-0.04 -0.025,-0.086 -0.025,-0.139c0,-0.051 0.008,-0.095 0.025,-0.134c0.016,-0.039 0.037,-0.072 0.064,-0.1c0.027,-0.028 0.056,-0.051 0.089,-0.068c0.032,-0.017 0.064,-0.03 0.097,-0.038c0.033,-0.009 0.063,-0.013 0.09,-0.013c0.034,0 0.064,0.004 0.09,0.013c0.026,0.008 0.047,0.017 0.064,0.026c0.016,0.009 0.026,0.014 0.03,0.017c0.013,0.009 0.026,0.018 0.038,0.028c0.011,0.011 0.017,0.025 0.017,0.042c0,0.009 -0.002,0.018 -0.005,0.027c-0.004,0.009 -0.01,0.019 -0.017,0.029c-0.013,0.019 -0.026,0.032 -0.037,0.041c-0.012,0.009 -0.024,0.013 -0.035,0.013c-0.009,-0 -0.017,-0.002 -0.025,-0.006c-0.008,-0.004 -0.018,-0.01 -0.029,-0.017c-0.005,-0.003 -0.011,-0.007 -0.018,-0.012c-0.007,-0.004 -0.017,-0.008 -0.03,-0.012c-0.013,-0.003 -0.029,-0.005 -0.05,-0.005c-0.017,-0 -0.036,0.003 -0.056,0.009c-0.021,0.007 -0.04,0.017 -0.058,0.03c-0.018,0.014 -0.033,0.032 -0.044,0.054c-0.011,0.023 -0.017,0.05 -0.017,0.081c0,0.032 0.006,0.059 0.018,0.081c0.011,0.022 0.026,0.04 0.044,0.053c0.018,0.014 0.037,0.024 0.058,0.03c0.02,0.007 0.038,0.01 0.055,0.01c0.017,-0 0.032,-0.002 0.044,-0.005c0.012,-0.003 0.023,-0.007 0.033,-0.012c0.009,-0.005 0.018,-0.011 0.026,-0.016c0.007,-0.005 0.015,-0.01 0.024,-0.014c0.009,-0.004 0.017,-0.006 0.026,-0.006c0.011,-0 0.023,0.005 0.034,0.014c0.011,0.009 0.023,0.024 0.036,0.043c0.007,0.011 0.013,0.022 0.017,0.031c0.003,0.01 0.005,0.019 0.005,0.027c0,0.017 -0.006,0.03 -0.017,0.04c-0.012,0.01 -0.025,0.019 -0.038,0.027c-0.005,0.003 -0.015,0.009 -0.03,0.018c-0.015,0.009 -0.036,0.018 -0.062,0.026c-0.026,0.008 -0.057,0.012 -0.094,0.012Z" style="fill-rule:nonzero;"/></g><g transform="matrix(238.378,0,0,238.378,276.245,193.148)"><path d="M0.126,0.008c-0.03,0 -0.051,-0.005 -0.064,-0.014c-0.013,-0.008 -0.02,-0.02 -0.023,-0.035c-0.003,-0.014 -0.004,-0.028 -0.004,-0.043l0,-0.516c0,-0.015 0.001,-0.029 0.004,-0.043c0.003,-0.014 0.01,-0.025 0.023,-0.034c0.013,-0.009 0.034,-0.014 0.065,-0.014l0.201,0c0.025,-0 0.053,0.005 0.082,0.016c0.029,0.01 0.057,0.026 0.083,0.047c0.026,0.021 0.047,0.048 0.064,0.08c0.017,0.032 0.025,0.07 0.025,0.114c-0,0.031 -0.005,0.059 -0.014,0.086c-0.009,0.027 -0.022,0.051 -0.04,0.073c-0.017,0.021 -0.038,0.04 -0.064,0.057c-0.025,0.016 -0.053,0.029 -0.085,0.038l-0.161,0l0,0.097c0,0.015 -0.001,0.029 -0.004,0.043c-0.003,0.014 -0.01,0.026 -0.023,0.035c-0.013,0.009 -0.034,0.013 -0.065,0.013Zm0.419,-0.024c-0.03,0.023 -0.054,0.032 -0.071,0.028c-0.017,-0.005 -0.036,-0.02 -0.056,-0.047l-0.184,-0.25l0.208,-0.026l0.124,0.167c0.013,0.019 0.022,0.036 0.026,0.049c0.003,0.013 0.001,0.026 -0.006,0.038c-0.007,0.012 -0.021,0.026 -0.041,0.041Zm-0.327,-0.346l0.11,0c0.006,0 0.013,-0.001 0.022,-0.003c0.008,-0.003 0.016,-0.007 0.023,-0.012c0.007,-0.006 0.014,-0.014 0.019,-0.023c0.005,-0.009 0.007,-0.021 0.007,-0.035c0,-0.014 -0.003,-0.026 -0.01,-0.037c-0.007,-0.011 -0.015,-0.02 -0.026,-0.026c-0.011,-0.007 -0.024,-0.01 -0.037,-0.01l-0.108,0l0,0.146Z" style="fill-rule:nonzero;"/></g><g transform="matrix(238.378,0,0,238.378,420.225,193.148)"></g><g transform="matrix(238.378,0,0,238.378,476.244,193.148)"></g><g transform="matrix(238.378,0,0,238.378,532.263,193.148)"></g><g transform="matrix(238.378,0,0,238.378,588.282,193.148)"><path d="M0.549,-0.692c0.013,0 0.025,0.001 0.036,0.003c0.011,0.002 0.021,0.008 0.028,0.019c0.008,0.011 0.012,0.029 0.012,0.055c-0,0.025 -0.004,0.043 -0.012,0.054c-0.007,0.011 -0.017,0.018 -0.029,0.02c-0.011,0.002 -0.023,0.003 -0.036,0.003l-0.138,-0l0,0.458c-0,0.015 -0.001,0.029 -0.004,0.042c-0.003,0.014 -0.01,0.025 -0.023,0.034c-0.012,0.009 -0.033,0.013 -0.064,0.013c-0.029,-0 -0.05,-0.005 -0.063,-0.014c-0.013,-0.009 -0.02,-0.02 -0.022,-0.034c-0.003,-0.013 -0.004,-0.027 -0.004,-0.042l0,-0.457l-0.139,-0c-0.012,-0 -0.024,-0.001 -0.035,-0.004c-0.012,-0.002 -0.022,-0.008 -0.029,-0.019c-0.008,-0.011 -0.012,-0.029 -0.012,-0.055c0,-0.025 0.004,-0.043 0.012,-0.054c0.007,-0.011 0.017,-0.017 0.029,-0.019c0.012,-0.002 0.024,-0.003 0.036,-0.003l0.457,0Z" style="fill-rule:nonzero;"/></g><g transform="matrix(238.378,0,0,238.378,726.541,193.148)"><path d="M0.376,0.019c-0.026,0 -0.055,-0.004 -0.087,-0.012c-0.032,-0.009 -0.064,-0.022 -0.096,-0.04c-0.033,-0.018 -0.062,-0.041 -0.089,-0.07c-0.027,-0.029 -0.049,-0.063 -0.065,-0.103c-0.017,-0.04 -0.025,-0.086 -0.025,-0.139c0,-0.051 0.008,-0.095 0.025,-0.134c0.016,-0.039 0.037,-0.072 0.064,-0.1c0.027,-0.028 0.056,-0.051 0.089,-0.068c0.032,-0.017 0.064,-0.03 0.097,-0.038c0.033,-0.009 0.063,-0.013 0.09,-0.013c0.034,0 0.064,0.004 0.09,0.013c0.026,0.008 0.047,0.017 0.064,0.026c0.016,0.009 0.026,0.014 0.03,0.017c0.013,0.009 0.026,0.018 0.038,0.028c0.011,0.011 0.017,0.025 0.017,0.042c0,0.009 -0.002,0.018 -0.005,0.027c-0.004,0.009 -0.01,0.019 -0.017,0.029c-0.013,0.019 -0.026,0.032 -0.037,0.041c-0.012,0.009 -0.024,0.013 -0.035,0.013c-0.009,-0 -0.017,-0.002 -0.025,-0.006c-0.008,-0.004 -0.018,-0.01 -0.029,-0.017c-0.005,-0.003 -0.011,-0.007 -0.018,-0.012c-0.007,-0.004 -0.017,-0.008 -0.03,-0.012c-0.013,-0.003 -0.029,-0.005 -0.05,-0.005c-0.017,-0 -0.036,0.003 -0.056,0.009c-0.021,0.007 -0.04,0.017 -0.058,0.03c-0.018,0.014 -0.033,0.032 -0.044,0.054c-0.011,0.023 -0.017,0.05 -0.017,0.081c0,0.032 0.006,0.059 0.018,0.081c0.011,0.022 0.026,0.04 0.044,0.053c0.018,0.014 0.037,0.024 0.058,0.03c0.02,0.007 0.038,0.01 0.055,0.01c0.017,-0 0.032,-0.002 0.044,-0.005c0.012,-0.003 0.023,-0.007 0.033,-0.012c0.009,-0.005 0.018,-0.011 0.026,-0.016c0.007,-0.005 0.015,-0.01 0.024,-0.014c0.009,-0.004 0.017,-0.006 0.026,-0.006c0.011,-0 0.023,0.005 0.034,0.014c0.011,0.009 0.023,0.024 0.036,0.043c0.007,0.011 0.013,0.022 0.017,0.031c0.003,0.01 0.005,0.019 0.005,0.027c0,0.017 -0.006,0.03 -0.017,0.04c-0.012,0.01 -0.025,0.019 -0.038,0.027c-0.005,0.003 -0.015,0.009 -0.03,0.018c-0.015,0.009 -0.036,0.018 -0.062,0.026c-0.026,0.008 -0.057,0.012 -0.094,0.012Z" style="fill-rule:nonzero;"/></g><g transform="matrix(238.378,0,0,238.378,876.958,193.148)"><path d="M0.53,0.008c-0.03,0 -0.051,-0.005 -0.064,-0.014c-0.013,-0.008 -0.02,-0.02 -0.023,-0.035c-0.003,-0.014 -0.004,-0.028 -0.004,-0.043l0,-0.516c0,-0.015 0.001,-0.029 0.004,-0.043c0.003,-0.014 0.01,-0.025 0.023,-0.034c0.013,-0.009 0.034,-0.014 0.065,-0.014c0.031,-0 0.052,0.005 0.065,0.014c0.012,0.009 0.019,0.02 0.022,0.034c0.003,0.014 0.004,0.029 0.004,0.044l-0,0.516c-0,0.015 -0.001,0.029 -0.004,0.043c-0.003,0.014 -0.01,0.025 -0.023,0.034c-0.013,0.009 -0.034,0.014 -0.065,0.014Zm-0.411,-0c-0.03,-0 -0.051,-0.005 -0.064,-0.014c-0.013,-0.009 -0.02,-0.02 -0.023,-0.035c-0.003,-0.014 -0.004,-0.028 -0.004,-0.043l0,-0.516c0,-0.015 0.001,-0.029 0.004,-0.043c0.003,-0.014 0.01,-0.025 0.023,-0.034c0.013,-0.009 0.034,-0.014 0.065,-0.014c0.031,-0 0.052,0.005 0.065,0.014c0.012,0.009 0.019,0.02 0.022,0.034c0.003,0.014 0.004,0.029 0.004,0.044l0,0.516c0,0.015 -0.001,0.029 -0.004,0.043c-0.003,0.014 -0.01,0.025 -0.023,0.034c-0.013,0.009 -0.034,0.014 -0.065,0.014Zm0.076,-0.271l0,-0.156l0.26,-0l0,0.156l-0.26,-0Z" style="fill-rule:nonzero;"/></g><g transform="matrix(238.378,0,0,238.378,1031.9,193.148)"></g><path d="M516.043,179.096l-48.65,8.382l0.736,-0.14l-7.748,0.767l-7.931,-1.026l-7.38,-2.776l-6.328,-4.08l-5.209,-4.923l-4.285,-5.84l-3.136,-6.469c-0.811,-2.137 -1.465,-4.389 -1.944,-6.761l-0.813,-7.379l0.609,-7.562l2.086,-7.301l3.363,-6.633l68.978,-110.082l4.494,-5.835l5.731,-4.931l6.612,-3.609l6.953,-2.145l7.757,-0.753l7.908,1.073l7.289,2.794l6.222,4.035l5.275,5.01l4.296,5.925c2.329,3.929 4.05,8.354 5.049,13.315c0.038,0.19 0.074,0.381 0.107,0.573l30.192,175.234l0.008,11.02l-1.574,5.627l-2.596,5.171l-3.618,4.683l-4.771,4.05l-5.569,2.923l-5.771,1.603l-14.947,2.575l-5.975,0.421l-6.225,-0.891l-5.852,-2.219l-4.977,-3.203l-4.176,-4.004l-3.367,-4.776l-3.68,-10.386l-7.143,-41.457Zm59.702,32.401l-30.192,-175.235c-1.019,-5.061 -3.395,-9.071 -7.13,-12.028c-3.734,-2.957 -7.722,-3.988 -11.965,-3.094c-4.528,0.944 -7.999,3.343 -10.413,7.195l-68.978,110.082c-2.644,4.22 -3.471,8.781 -2.479,13.684c0.991,4.902 3.354,8.832 7.088,11.79c3.734,2.957 7.794,3.976 12.179,3.056l60.641,-10.448c2.42,-0.417 4.606,0.148 6.557,1.693c1.952,1.546 3.161,3.67 3.627,6.372l9.037,52.451c0.466,2.702 1.674,4.826 3.626,6.372c1.952,1.546 4.138,2.11 6.558,1.693l14.947,-2.575c2.419,-0.417 4.29,-1.68 5.613,-3.79c1.322,-2.11 1.75,-4.516 1.284,-7.218Zm-49.692,-97c0.548,3.179 -0.602,5.014 -3.449,5.504l-16.227,2.796c-2.847,0.491 -4.545,-0.853 -5.092,-4.032c-0.219,-1.272 -0.042,-2.366 0.533,-3.284l13.451,-21.466c0.575,-0.917 1.431,-1.474 2.57,-1.67c2.847,-0.49 4.545,0.854 5.092,4.033l3.122,18.119Z"/></g></svg>